<?xml version="1.0" encoding="UTF-8"?>
<svg width="12px" height="40px" viewBox="0 0 12 40" version="1.1" xmlns="http://www.w3.org/2000/svg" xmlns:xlink="http://www.w3.org/1999/xlink">
    <!-- Generator: Sketch 52.4 (67378) - http://www.bohemiancoding.com/sketch -->
    <title>brand/logo</title>
    <desc>Created with Sketch.</desc>
    <g id="brand/logo" stroke="none" stroke-width="1" fill="none" fill-rule="evenodd">
        <path d="M5.11031266,23.0153893 C5.22074722,21.9243304 7.09123257,14.9967034 7.07545621,14.2371432 C7.04193143,12.7777524 6.14267859,11.9076926 5.11031266,12.6244466 C4.23768243,13.2316966 3.85214749,14.56466 3.57901916,15.7134575 C3.01501409,18.0767548 2.94993658,20.64811 3.32363924,23.0153893 C4.00498103,27.3527468 5.46232282,31.3018625 7.43239648,35.0339609 C8.1709276,36.4346178 9.12539773,37.6650456 10,39 C9.79392122,38.8536627 9.55037358,38.7182758 9.33837866,38.5261459 C5.39231519,34.9204749 2.92331396,30.1172273 1.72529619,24.3015646 C0.982820979,20.6978846 0.647573208,17.0623488 1.51724537,13.4576732 C1.81108018,12.2431733 2.27253888,11.0356418 2.86119452,10.0043124 C4.35600517,7.38218718 7.61382469,7.33639456 9.13624398,9.84602921 C9.74067599,10.8604353 9.98619568,12.0142102 9.73180178,13.4546867 C9.60559086,14.1774137 8.79606609,15.8229616 7.92442189,17.6228106 C6.83289459,19.8785949 5.59740795,22.2010771 5.11031266,23.0153893" id="Fill-1" fill="#EC1D24"></path>
        <path d="M11,4 C11,2.34359484 9.65640516,1 8,1 C6.34359484,1 5,2.34359484 5,4 C5,5.65640516 6.34359484,7 8,7 C9.65640516,7 11,5.65640516 11,4" id="Fill-4" fill="#EC1D24"></path>
    </g>
</svg>