<?xml version="1.0" encoding="UTF-8"?>
<svg width="151px" height="42px" viewBox="0 0 151 42" version="1.1" xmlns="http://www.w3.org/2000/svg" xmlns:xlink="http://www.w3.org/1999/xlink">
    <!-- Generator: Sketch 52.5 (67469) - http://www.bohemiancoding.com/sketch -->
    <title>brand/logo-text</title>
    <desc>Created with Sketch.</desc>
    <g id="Pages" stroke="none" stroke-width="1" fill="none" fill-rule="evenodd">
        <g id="1366x768" transform="translate(-132.000000, -17.000000)">
            <g id="top" transform="translate(0.000000, 1.000000)">
                <g id="brand/logo-text-white" transform="translate(131.000000, 15.000000)">
                    <path d="M8.15566555,24.3730381 C8.15566555,23.8610184 7.99439694,23.4267225 7.67185489,23.0701374 C7.34931283,22.7135522 6.93922979,22.3798301 6.44159347,22.068961 C5.94395715,21.7580919 5.41407458,21.4563705 4.85192985,21.1637878 C4.28978512,20.8712051 3.75990254,20.5283399 3.26226622,20.1351819 C2.7646299,19.7420239 2.35454687,19.2894419 2.03200481,18.7774222 C1.70946275,18.2654025 1.54819414,17.6345305 1.54819414,16.8847874 C1.54819414,16.3910541 1.663386,15.9339005 1.89377319,15.5133129 C2.12416037,15.0927253 2.43287457,14.7315739 2.81992504,14.429848 C3.20697551,14.1281221 3.65852762,13.8904022 4.17459491,13.7166813 C4.6906622,13.5429603 5.24358315,13.4561011 5.83337435,13.4561011 C6.82864698,13.4561011 7.64420538,13.5109596 8.28007401,13.6206781 C8.91594264,13.7303966 9.52876336,13.8858288 10.1185546,14.0869794 C10.0448307,14.6721448 9.95728484,15.2618729 9.85591447,15.8561815 C9.75454411,16.4504901 9.6117062,17.0585044 9.42739645,17.6802426 L8.73623836,17.6802426 L7.68567805,14.8824346 C7.46450635,14.7910025 7.21569192,14.7315725 6.9392273,14.7041429 C6.66276268,14.6767133 6.37708686,14.6629987 6.08219126,14.6629987 C5.75043372,14.6629987 5.46015022,14.7224286 5.21133206,14.8412904 C4.9625139,14.9601521 4.75056087,15.1110128 4.57546661,15.2938769 C4.40037235,15.4767411 4.26674978,15.6870318 4.17459491,15.9247552 C4.08244004,16.1624787 4.03636329,16.4001985 4.03636329,16.637922 C4.03636329,17.1316552 4.1976319,17.5568081 4.52017396,17.9133932 C4.84271602,18.2699784 5.25279906,18.599129 5.75043537,18.9008549 C6.24807169,19.2025808 6.77795427,19.4997306 7.340099,19.7923133 C7.90224373,20.084896 8.43212631,20.4140466 8.92976262,20.779775 C9.42739894,21.1455033 9.83748198,21.5706562 10.160024,22.0552462 C10.4825661,22.5398363 10.6438347,23.1204214 10.6438347,23.7970189 C10.6438347,24.4187571 10.5102121,24.9764845 10.242963,25.4702177 C9.97571388,25.963951 9.60709991,26.3845323 9.13711005,26.7319743 C8.6671202,27.0794162 8.1234146,27.3491368 7.50597694,27.5411442 C6.88853929,27.7331516 6.22964182,27.8291539 5.52926478,27.8291539 C4.73673287,27.8291539 4.00872028,27.7605808 3.34520519,27.6234327 C2.6816901,27.4862846 1.99053892,27.2897085 1.2717309,27.0336987 C1.30859285,26.3753876 1.39153099,25.7399441 1.52054782,25.1273491 C1.64956464,24.5147541 1.81544092,23.925026 2.01818165,23.358147 L2.70933974,23.358147 L3.925778,26.3479614 C4.12851872,26.4942528 4.37272547,26.5765404 4.65840558,26.5948268 C4.94408569,26.6131132 5.20672314,26.6222563 5.44632581,26.6222563 C6.2572887,26.6222563 6.91157849,26.4028226 7.40921481,25.9639486 C7.90685113,25.5250745 8.15566555,24.9947764 8.15566555,24.3730381 Z M18.9653782,32.985898 L12.8278943,32.985898 L12.8278943,32.3001608 C13.4545474,32.0075781 14.0627605,31.7881443 14.6525517,31.641853 L14.6525517,15.3761654 L12.8278943,15.1567295 L12.8278943,14.4435628 C13.4176855,14.1875529 14.0212909,13.9818338 14.6387285,13.8263992 C15.2561662,13.6709647 15.8597715,13.5475332 16.4495627,13.4561011 L17.1407208,13.4561011 L17.1407208,16.528204 L17.1683672,16.528204 C17.5369866,15.5955967 18.0530462,14.8504363 18.7165613,14.2927006 C19.3800764,13.7349648 20.2463192,13.4561011 21.3153157,13.4561011 C22.9556725,13.4561011 24.2273907,13.9955424 25.1305084,15.074441 C26.0336262,16.1533397 26.4851783,17.9088095 26.4851783,20.3409031 C26.4851783,21.4929475 26.333125,22.5352576 26.029014,23.467865 C25.7249029,24.4004723 25.2917815,25.1867765 24.7296367,25.8268011 C24.167492,26.4668257 23.4855562,26.9605516 22.6838088,27.3079936 C21.8820614,27.6554355 20.9927802,27.8291539 20.0159385,27.8291539 C19.3339924,27.8291539 18.7995022,27.7880101 18.4124517,27.7057212 C18.0254013,27.6234323 17.6014952,27.4817147 17.1407208,27.2805641 L17.1407208,31.641853 C17.4356164,31.6784258 17.7305076,31.7469989 18.0254032,31.8475742 C18.3202988,31.9481495 18.6336207,32.0990102 18.9653782,32.3001608 L18.9653782,32.985898 Z M20.4306334,15.1567295 C19.5275156,15.1567295 18.8087184,15.4401647 18.2742201,16.0070437 C17.7397218,16.5739227 17.3618925,17.3510838 17.1407208,18.3385503 L17.1407208,26.0188075 C17.4724784,26.2199581 17.8457,26.3708188 18.2603969,26.4713941 C18.6750939,26.5719694 19.2141918,26.6222563 19.8777069,26.6222563 C20.4859291,26.6222563 21.0342423,26.4668241 21.5226632,26.155955 C22.011084,25.8450859 22.4257747,25.4062184 22.7667477,24.8393395 C23.1077208,24.2724605 23.3703582,23.6095878 23.554668,22.8507014 C23.7389777,22.0918151 23.8311312,21.255224 23.8311312,20.3409031 C23.8311312,19.59116 23.7712314,18.900858 23.6514301,18.2699766 C23.5316288,17.6390952 23.3381064,17.0905109 23.0708573,16.6242072 C22.8036082,16.1579036 22.4534249,15.7967522 22.020297,15.5407424 C21.5871691,15.2847325 21.0572865,15.1567295 20.4306334,15.1567295 Z" id="sp" fill="#FFA500"></path>
                    <path d="M52.8267194,25.5799357 C52.4949619,26.2199603 51.955864,26.75483 51.2094095,27.1845609 C50.462955,27.6142917 49.5921045,27.8291539 48.5968319,27.8291539 C47.5094044,27.8291539 46.5648311,27.660007 45.7630837,27.3217083 C44.9613363,26.9834096 44.2932235,26.4988268 43.7587252,25.8679453 C43.2242269,25.2370639 42.8233592,24.478189 42.5561101,23.5912977 C42.288861,22.7044064 42.1552384,21.7215262 42.1552384,20.6426275 C42.1552384,18.3202524 42.7265901,16.5419249 43.8693105,15.3075917 C45.0120309,14.0732585 46.5694249,13.4561011 48.5415392,13.4561011 C49.444657,13.4561011 50.251,13.5338172 50.9605926,13.6892518 C51.6701851,13.8446863 52.2737905,14.0504055 52.7714268,14.3064153 C52.7161339,14.9098671 52.614765,15.5864544 52.4673172,16.3361976 C52.3198694,17.0859407 52.1355624,17.7076696 51.9143908,18.2014029 L51.16794,18.2014029 L50.0067944,14.9372936 C49.8777776,14.8458615 49.730332,14.7772885 49.5644532,14.7315724 C49.3985744,14.6858564 49.122114,14.6629987 48.7350635,14.6629987 C47.4817572,14.6629987 46.5141456,15.1155807 45.8321995,16.0207584 C45.1502534,16.9259361 44.8092855,18.4574007 44.8092855,20.615198 C44.8092855,21.3100819 44.9060467,21.9866692 45.0995719,22.6449803 C45.2930971,23.3032913 45.5879883,23.8930195 45.9842543,24.4141824 C46.3805202,24.9353453 46.8781491,25.3513551 47.4771558,25.6622242 C48.0761624,25.9730933 48.7719213,26.1285255 49.5644532,26.1285255 C50.2095373,26.1285255 50.7716736,26.0370948 51.250879,25.8542306 C51.7300843,25.6713664 52.1355597,25.4519327 52.4673172,25.1959228 L52.8267194,25.5799357 Z M66.2351865,25.5799357 C66.0877387,25.8908048 65.857355,26.1833831 65.5440284,26.4576794 C65.2307019,26.7319757 64.8713033,26.9696955 64.4658218,27.1708461 C64.0603404,27.3719967 63.6180036,27.5320005 63.1387983,27.6508622 C62.6595929,27.7697239 62.1711794,27.8291539 61.6735431,27.8291539 C60.5861156,27.8291539 59.6277193,27.660007 58.7983254,27.3217083 C57.9689315,26.9834096 57.2777804,26.4988268 56.7248511,25.8679453 C56.1719219,25.2370639 55.7526235,24.4827605 55.4669434,23.6050124 C55.1812633,22.7272644 55.0384254,21.7398126 55.0384254,20.6426275 C55.0384254,18.301966 55.582131,16.519067 56.6695585,15.293877 C57.756986,14.0686869 59.2959493,13.4561011 61.2864946,13.4561011 C61.9315787,13.4561011 62.5674378,13.5429603 63.1940909,13.7166813 C63.8207441,13.8904022 64.3782727,14.178409 64.8666935,14.5807102 C65.3551143,14.9830114 65.7513744,15.5178811 66.0554854,16.1853354 C66.3595965,16.8527896 66.5116498,17.6802376 66.5116498,18.6677042 C66.5116498,18.9785733 66.4978268,19.2940093 66.4701803,19.6140216 C66.4425338,19.9340339 66.3918494,20.2768991 66.3181255,20.6426275 L57.6924725,20.6426275 C57.6924725,21.4106571 57.7892336,22.1283882 57.9827589,22.7958425 C58.1762841,23.4632967 58.4665676,24.0438818 58.8536181,24.5376151 C59.2406685,25.0313484 59.729082,25.4199289 60.3188732,25.7033684 C60.9086644,25.9868079 61.5998156,26.1285255 62.3923475,26.1285255 C63.0374316,26.1285255 63.6917214,26.0370948 64.3552365,25.8542306 C65.0187516,25.6713664 65.5163805,25.4336465 65.848138,25.1410639 L66.2351865,25.5799357 Z M61.1759093,14.6629987 C60.1253437,14.6629987 59.3236083,15.0150069 58.7706791,15.719034 C58.2177498,16.4230611 57.8859973,17.6619474 57.7754114,19.4357299 L63.8576027,19.4357299 C63.8760337,19.2711522 63.8898567,19.1111484 63.8990722,18.9557139 C63.9082877,18.8002793 63.9128953,18.6494186 63.9128953,18.5031273 C63.9128953,17.3327965 63.691727,16.4002032 63.2493836,15.7053193 C62.8070402,15.0104354 62.115889,14.6629987 61.1759093,14.6629987 Z M78.1231058,24.7844805 C78.0309509,25.1867817 77.87429,25.5707907 77.6531183,25.9365191 C77.4319466,26.3022474 77.1600938,26.6268265 76.8375518,26.910266 C76.5150097,27.1937054 76.1463957,27.4177107 75.7316988,27.5822885 C75.3170019,27.7468662 74.8700574,27.8291539 74.3908521,27.8291539 C72.5661856,27.8291539 71.2023139,27.2531404 70.2991962,26.101096 C69.3960784,24.9490517 68.9445263,23.1570096 68.9445263,20.724916 C68.9445263,18.3842545 69.5204856,16.6013554 70.6724215,15.3761654 C71.8243574,14.1509754 73.3771438,13.5383896 75.3308271,13.5383896 C76.0127732,13.5383896 76.5472634,13.5703903 76.9343139,13.6343928 C77.3213644,13.6983953 77.7452704,13.8126837 78.2060448,13.9772614 L78.2060448,8.79308782 L76.1049242,8.5736519 L76.1049242,7.86048516 C76.6394224,7.64104814 77.2614585,7.44904363 77.971051,7.28446587 C78.6806436,7.11988811 79.3579717,6.98274203 80.0030558,6.87302352 L80.6942139,6.87302352 L80.6942139,25.9365191 L82.5188713,26.155955 L82.5188713,26.7319743 C81.9843731,26.9879841 81.4314521,27.2074179 80.8600919,27.390282 C80.2887317,27.5731462 79.7265954,27.7011492 79.1736661,27.7742949 L78.482508,27.7742949 L78.2336911,24.7844805 L78.1231058,24.7844805 Z M74.9437786,26.1285255 C75.8468963,26.1285255 76.5656936,25.8450903 77.1001918,25.2782113 C77.6346901,24.7113323 78.0033041,23.9433143 78.2060448,22.9741341 L78.2060448,15.239018 C77.8927182,15.0561538 77.5241043,14.9281508 77.1001918,14.8550051 C76.6762794,14.7818594 76.1325738,14.7452871 75.4690587,14.7452871 C74.2157524,14.7452871 73.2573561,15.2892999 72.593841,16.3773418 C71.9303259,17.4653837 71.5985734,18.9145606 71.5985734,20.724916 C71.5985734,21.4746591 71.6630808,22.1741041 71.7920976,22.823272 C71.9211145,23.4724398 72.1238522,24.0438818 72.4003168,24.5376151 C72.6767814,25.0313484 73.022357,25.4199289 73.4370539,25.7033684 C73.8517509,25.9868079 74.3539874,26.1285255 74.9437786,26.1285255 Z M90.1492567,32.985898 L84.0117728,32.985898 L84.0117728,32.3001607 C84.638426,32.0075781 85.246639,31.7881443 85.8364302,31.641853 L85.8364302,15.3761654 L84.0117728,15.1567295 L84.0117728,14.4435628 C84.601564,14.1875529 85.2051694,13.9818338 85.822607,13.8263992 C86.4400447,13.6709647 87.0436501,13.5475332 87.6334412,13.4561011 L88.3245993,13.4561011 L88.3245993,16.528204 L88.3522457,16.528204 C88.7208652,15.5955967 89.2369247,14.8504363 89.9004398,14.2927006 C90.5639549,13.7349648 91.4301977,13.4561011 92.4991943,13.4561011 C94.139551,13.4561011 95.4112692,13.9955424 96.314387,15.074441 C97.2175047,16.1533397 97.6690568,17.9088095 97.6690568,20.3409031 C97.6690568,21.4929475 97.5170036,22.5352576 97.2128925,23.467865 C96.9087814,24.4004723 96.47566,25.1867765 95.9135153,25.8268011 C95.3513705,26.4668257 94.6694347,26.9605516 93.8676873,27.3079936 C93.0659399,27.6554355 92.1766587,27.8291539 91.199817,27.8291539 C90.517871,27.8291539 89.9833807,27.7880101 89.5963302,27.7057212 C89.2092798,27.6234323 88.7853737,27.4817147 88.3245993,27.2805641 L88.3245993,31.641853 C88.6194949,31.6784258 88.9143861,31.7469989 89.2092817,31.8475742 C89.5041773,31.9481495 89.8174992,32.0990102 90.1492567,32.3001607 L90.1492567,32.985898 Z M91.6145119,15.1567295 C90.7113941,15.1567295 89.9925969,15.4401647 89.4580986,16.0070437 C88.9236004,16.5739227 88.545771,17.3510838 88.3245993,18.3385503 L88.3245993,26.0188075 C88.6563569,26.2199581 89.0295785,26.3708188 89.4442755,26.4713941 C89.8589724,26.5719694 90.3980703,26.6222563 91.0615854,26.6222563 C91.6698076,26.6222563 92.2181209,26.4668241 92.7065417,26.155955 C93.1949625,25.8450859 93.6096532,25.4062184 93.9506263,24.8393395 C94.2915993,24.2724605 94.5542367,23.6095878 94.7385465,22.8507014 C94.9228562,22.0918151 95.0150097,21.255224 95.0150097,20.3409031 C95.0150097,19.59116 94.95511,18.900858 94.8353086,18.2699766 C94.7155073,17.6390952 94.521985,17.0905109 94.2547358,16.6242072 C93.9874867,16.1579036 93.6373034,15.7967522 93.2041755,15.5407424 C92.7710476,15.2847325 92.241165,15.1567295 91.6145119,15.1567295 Z M110.137549,23.9067368 C110.137549,24.309038 110.146764,24.6564747 110.165195,24.9490574 C110.183626,25.2416401 110.202057,25.5525046 110.220488,25.8816601 L112.128084,26.155955 L112.128084,26.7319743 C111.66731,26.9696977 111.155858,27.1799884 110.593713,27.3628526 C110.031569,27.5457167 109.492471,27.6828628 108.976403,27.7742949 L108.285245,27.7742949 C108.100935,27.3537073 107.990351,26.8919822 107.953489,26.3891057 C107.916627,25.8862292 107.888981,25.3330733 107.87055,24.7296215 L107.732319,24.7296215 C107.658595,25.0953499 107.515757,25.4656443 107.303801,25.8405159 C107.091845,26.2153874 106.815384,26.5491096 106.474411,26.8416922 C106.133438,27.1342749 105.73257,27.3719948 105.271796,27.554859 C104.811022,27.7377232 104.285747,27.8291539 103.695955,27.8291539 C102.571666,27.8291539 101.654739,27.4908602 100.945146,26.8142628 C100.235554,26.1376653 99.8807627,25.2507873 99.8807627,24.1536022 C99.8807627,23.312427 100.051247,22.6221251 100.39222,22.0826757 C100.733193,21.5432264 101.235429,21.1180735 101.898944,20.8072044 C102.562459,20.4963353 103.382626,20.2723301 104.359467,20.1351819 C105.336309,19.9980338 106.469797,19.8928885 107.759965,19.8197428 C107.833689,19.0334268 107.856727,18.3248387 107.829081,17.6939573 C107.801434,17.0630759 107.700066,16.5236347 107.524971,16.0756174 C107.349877,15.6276002 107.091847,15.2801634 106.750874,15.0332968 C106.409901,14.7864302 105.962957,14.6629987 105.410028,14.6629987 C105.151994,14.6629987 104.86171,14.6767133 104.539168,14.7041429 C104.216626,14.7315725 103.898697,14.8092887 103.58537,14.9372936 L102.285993,18.2288324 L101.567188,18.2288324 C101.382879,17.6802398 101.22161,17.1133694 101.083378,16.528204 C100.945146,15.9430386 100.8576,15.3670251 100.820738,14.8001461 C101.521115,14.3795585 102.299812,14.0504079 103.156852,13.8126845 C104.013892,13.5749611 104.967681,13.4561011 106.018247,13.4561011 C106.958226,13.4561011 107.709277,13.5886757 108.271422,13.8538287 C108.833567,14.1189818 109.262081,14.461847 109.556976,14.8824346 C109.851872,15.3030222 110.045394,15.7693189 110.137549,16.2813386 C110.229704,16.7933583 110.275781,17.3053703 110.275781,17.81739 C110.275781,18.9145751 110.252742,19.9705999 110.206665,20.9854961 C110.160587,22.0003923 110.137549,22.9741295 110.137549,23.9067368 Z M104.801808,26.1285255 C105.262583,26.1285255 105.668058,26.0370948 106.018247,25.8542306 C106.368435,25.6713664 106.663326,25.4519327 106.902929,25.1959228 C107.142532,24.939913 107.336054,24.6793354 107.483502,24.4141824 C107.63095,24.1490293 107.732318,23.9250241 107.787611,23.7421599 L107.787611,20.8620634 C106.718615,20.8620634 105.843157,20.9169219 105.161211,21.0266404 C104.479265,21.1363589 103.944774,21.3100772 103.557724,21.5478007 C103.170673,21.7855241 102.903428,22.0826739 102.75598,22.4392591 C102.608533,22.7958442 102.53481,23.2027109 102.53481,23.6598714 C102.53481,24.4461874 102.737548,25.0542017 103.143029,25.4839325 C103.54851,25.9136633 104.101431,26.1285255 104.801808,26.1285255 Z M119.592592,13.4561011 C120.587864,13.4561011 121.426461,13.5521034 122.108407,13.7441108 C122.790353,13.9361182 123.361705,14.233268 123.822479,14.6355692 C124.909907,13.9041125 126.043395,13.3738143 127.222977,13.0446588 C127.370425,13.2458094 127.476401,13.4926723 127.54091,13.785255 C127.605418,14.0778377 127.637672,14.3521298 127.637672,14.6081397 L127.27827,15.2664475 L124.375406,15.2664475 C124.83618,15.9247585 125.066564,16.7933503 125.066564,17.872249 C125.066564,19.1888711 124.601189,20.2586105 123.670424,21.0814993 C122.73966,21.9043882 121.380396,22.3158264 119.592592,22.3158264 C119.242403,22.3158264 118.956727,22.3066833 118.735556,22.2883969 C118.514384,22.2701105 118.26557,22.2426813 117.989105,22.2061084 C117.89695,22.3706862 117.790974,22.5535476 117.671172,22.7546982 C117.551371,22.9558488 117.491471,23.1661395 117.491471,23.3855765 C117.491471,23.7513049 117.703424,24.0393116 118.127337,24.2496054 C118.551249,24.4598992 119.081132,24.6473322 119.717,24.81191 C120.352869,24.9764877 121.04402,25.1456346 121.790474,25.3193555 C122.536929,25.4930765 123.232688,25.7307964 123.877772,26.0325223 C124.522856,26.3342482 125.061954,26.7274003 125.495082,27.2119904 C125.92821,27.6965804 126.153986,28.3228809 126.172417,29.0909104 C126.190848,29.7492215 126.038794,30.3435211 125.716252,30.8738273 C125.39371,31.4041334 124.946766,31.8475724 124.375406,32.2041575 C123.804046,32.5607427 123.117502,32.8350348 122.315755,33.0270422 C121.514007,33.2190496 120.633941,33.3150519 119.675531,33.3150519 C117.666554,33.3150519 116.150629,32.9767582 115.12771,32.3001607 C114.104791,31.6235633 113.593339,30.7732576 113.593339,29.7492182 C113.593339,29.2554849 113.67167,28.8257605 113.828333,28.4600321 C113.984996,28.0943038 114.210772,27.7742963 114.505668,27.5 C114.800564,27.2257037 115.169178,26.9834123 115.611521,26.7731185 C116.053864,26.5628247 116.560709,26.3662487 117.132069,26.1833845 C116.726587,26.0005203 116.390227,25.7490858 116.122978,25.4290735 C115.855729,25.1090612 115.722106,24.7204806 115.722106,24.2633202 C115.722106,23.8427326 115.901806,23.4267228 116.26121,23.0152784 C116.620614,22.603834 116.98462,22.2792549 117.353239,22.0415315 C116.302674,21.7672352 115.496331,21.2460801 114.934186,20.4780506 C114.372041,19.710021 114.090973,18.8414292 114.090973,17.872249 C114.090973,17.2505108 114.210773,16.6699257 114.450375,16.1304764 C114.689978,15.5910271 115.040161,15.1201589 115.500936,14.7178577 C115.96171,14.3155565 116.533062,14.004692 117.215008,13.785255 C117.896954,13.565818 118.689474,13.4561011 119.592592,13.4561011 Z M123.684248,29.7217887 C123.684248,29.1366233 123.486118,28.6703266 123.089852,28.3228847 C122.693586,27.9754428 122.200565,27.6920075 121.610773,27.4725705 C121.020982,27.2531335 120.385123,27.0702721 119.703177,26.9239807 C119.021231,26.7776894 118.385372,26.6131141 117.795581,26.4302499 C117.095204,26.8508375 116.634436,27.2942765 116.413264,27.7605802 C116.192093,28.2268838 116.081509,28.7068951 116.081509,29.2006284 C116.081509,30.1698085 116.431692,30.8966828 117.132069,31.3812728 C117.832446,31.8658629 118.846134,32.1081543 120.173164,32.1081543 C120.855111,32.1081543 121.421855,32.0441528 121.873413,31.9161479 C122.324972,31.788143 122.684371,31.6189961 122.95162,31.4087023 C123.218869,31.1984085 123.407784,30.946974 123.51837,30.6543913 C123.628956,30.3618087 123.684248,30.0509442 123.684248,29.7217887 Z M116.579142,17.872249 C116.579142,18.311123 116.629827,18.7271328 116.731197,19.1202908 C116.832568,19.5134488 116.998444,19.856314 117.228831,20.1488967 C117.459218,20.4414794 117.767932,20.6746277 118.154983,20.8483487 C118.542033,21.0220696 119.021231,21.1089288 119.592592,21.1089288 C120.661588,21.1089288 121.426462,20.7980644 121.887237,20.1763262 C122.348011,19.554588 122.578395,18.7865699 122.578395,17.872249 C122.578395,16.8847824 122.352619,16.1030498 121.90106,15.5270276 C121.449501,14.9510054 120.680019,14.6629987 119.592592,14.6629987 C118.468302,14.6629987 117.684998,14.9418624 117.242654,15.4995981 C116.800311,16.0573339 116.579142,16.8482096 116.579142,17.872249 Z M139.636177,25.5799357 C139.488729,25.8908048 139.258345,26.1833831 138.945018,26.4576794 C138.631692,26.7319757 138.272293,26.9696955 137.866812,27.1708461 C137.46133,27.3719967 137.018994,27.5320005 136.539788,27.6508622 C136.060583,27.7697239 135.572169,27.8291539 135.074533,27.8291539 C133.987106,27.8291539 133.028709,27.660007 132.199315,27.3217083 C131.369922,26.9834096 130.67877,26.4988268 130.125841,25.8679453 C129.572912,25.2370639 129.153613,24.4827605 128.867933,23.6050124 C128.582253,22.7272644 128.439415,21.7398126 128.439415,20.6426275 C128.439415,18.301966 128.983121,16.519067 130.070548,15.293877 C131.157976,14.0686869 132.696939,13.4561011 134.687485,13.4561011 C135.332569,13.4561011 135.968428,13.5429603 136.595081,13.7166813 C137.221734,13.8904022 137.779263,14.178409 138.267683,14.5807102 C138.756104,14.9830114 139.152364,15.5178811 139.456475,16.1853354 C139.760587,16.8527896 139.91264,17.6802376 139.91264,18.6677042 C139.91264,18.9785733 139.898817,19.2940093 139.87117,19.6140216 C139.843524,19.9340339 139.792839,20.2768991 139.719115,20.6426275 L131.093462,20.6426275 C131.093462,21.4106571 131.190224,22.1283882 131.383749,22.7958425 C131.577274,23.4632967 131.867558,24.0438818 132.254608,24.5376151 C132.641659,25.0313484 133.130072,25.4199289 133.719863,25.7033684 C134.309654,25.9868079 135.000806,26.1285255 135.793338,26.1285255 C136.438422,26.1285255 137.092711,26.0370948 137.756227,25.8542306 C138.419742,25.6713664 138.91737,25.4336465 139.249128,25.1410639 L139.636177,25.5799357 Z M134.576899,14.6629987 C133.526334,14.6629987 132.724598,15.0150069 132.171669,15.719034 C131.61874,16.4230611 131.286987,17.6619474 131.176401,19.4357299 L137.258593,19.4357299 C137.277024,19.2711522 137.290847,19.1111484 137.300062,18.9557139 C137.309278,18.8002793 137.313885,18.6494186 137.313885,18.5031273 C137.313885,17.3327965 137.092717,16.4002032 136.650374,15.7053193 C136.20803,15.0104354 135.516879,14.6629987 134.576899,14.6629987 Z M149.367683,24.3730381 C149.367683,23.8610184 149.206414,23.4267225 148.883872,23.0701374 C148.56133,22.7135522 148.151247,22.3798301 147.65361,22.068961 C147.155974,21.7580919 146.626092,21.4563705 146.063947,21.1637878 C145.501802,20.8712051 144.97192,20.5283399 144.474283,20.1351819 C143.976647,19.7420239 143.566564,19.2894419 143.244022,18.7774222 C142.92148,18.2654025 142.760211,17.6345305 142.760211,16.8847874 C142.760211,16.3910541 142.875403,15.9339005 143.10579,15.5133129 C143.336177,15.0927253 143.644892,14.7315739 144.031942,14.429848 C144.418993,14.1281221 144.870545,13.8904022 145.386612,13.7166813 C145.902679,13.5429603 146.4556,13.4561011 147.045391,13.4561011 C148.040664,13.4561011 148.856222,13.5109596 149.492091,13.6206781 C150.12796,13.7303966 150.74078,13.8858288 151.330572,14.0869794 C151.256848,14.6721448 151.169302,15.2618729 151.067931,15.8561815 C150.966561,16.4504901 150.823723,17.0585044 150.639413,17.6802426 L149.948255,17.6802426 L148.897695,14.8824346 C148.676523,14.7910025 148.427709,14.7315725 148.151244,14.7041429 C147.87478,14.6767133 147.589104,14.6629987 147.294208,14.6629987 C146.962451,14.6629987 146.672167,14.7224286 146.423349,14.8412904 C146.174531,14.9601521 145.962578,15.1110128 145.787484,15.293877 C145.612389,15.4767411 145.478767,15.6870318 145.386612,15.9247552 C145.294457,16.1624787 145.24838,16.4001985 145.24838,16.637922 C145.24838,17.1316552 145.409649,17.5568081 145.732191,17.9133932 C146.054733,18.2699784 146.464816,18.599129 146.962452,18.9008549 C147.460089,19.2025808 147.989971,19.4997306 148.552116,19.7923133 C149.114261,20.084896 149.644143,20.4140466 150.14178,20.779775 C150.639416,21.1455033 151.049499,21.5706562 151.372041,22.0552462 C151.694583,22.5398363 151.855852,23.1204214 151.855852,23.7970189 C151.855852,24.4187571 151.722229,24.9764845 151.45498,25.4702177 C151.187731,25.963951 150.819117,26.3845323 150.349127,26.7319743 C149.879137,27.0794162 149.335432,27.3491368 148.717994,27.5411442 C148.100556,27.7331516 147.441659,27.8291539 146.741282,27.8291539 C145.94875,27.8291539 145.220737,27.7605808 144.557222,27.6234327 C143.893707,27.4862846 143.202556,27.2897085 142.483748,27.0336987 C142.52061,26.3753876 142.603548,25.7399441 142.732565,25.1273491 C142.861582,24.5147541 143.027458,23.925026 143.230199,23.358147 L143.921357,23.358147 L145.137795,26.3479614 C145.340536,26.4942528 145.584742,26.5765404 145.870423,26.5948268 C146.156103,26.6131132 146.41874,26.6222563 146.658343,26.6222563 C147.469306,26.6222563 148.123595,26.4028226 148.621232,25.9639486 C149.118868,25.5250745 149.367683,24.9947764 149.367683,24.3730381 Z" id="cedpages" fill="#FFA500"></path>
                    <path d="M34.4918684,25.3169282 C34.6143067,24.1167634 36.6881057,16.4963738 36.6706145,15.6608576 C36.6334457,14.0555276 35.636448,13.0984618 34.4918684,13.8868913 C33.524387,14.5548662 33.0969461,16.021126 32.7941299,17.2848032 C32.16882,19.8844303 32.0966688,22.712921 32.5109913,25.3169282 C33.266392,30.0880214 34.8821405,34.4320487 37.0663526,38.537357 C37.8851589,40.0780796 38.9433757,41.4315501 39.9130435,42.9 C39.6845648,42.739029 39.4145446,42.5901034 39.1795068,42.3787605 C34.8045234,38.4125224 32.0671524,33.12895 30.7389153,26.7317211 C29.9157363,22.767673 29.5440486,18.7685836 30.5082503,14.8034405 C30.8340237,13.4674906 31.3456409,12.139206 31.9982809,11.0047436 C33.6555709,8.1204059 37.2675013,8.07003401 38.9554009,10.8306321 C39.6255321,11.9464788 39.8977387,13.2156312 39.6156933,14.8001554 C39.4757638,15.5951551 38.5782472,17.4052577 37.611859,19.3850917 C36.4016875,21.8664543 35.0319088,24.4211848 34.4918684,25.3169282" id="Fill-1" fill="#EC1D24"></path>
                    <path d="M41.0217391,4.4 C41.0217391,2.57795432 39.5321014,1.1 37.6956522,1.1 C35.859203,1.1 34.3695652,2.57795432 34.3695652,4.4 C34.3695652,6.22204568 35.859203,7.7 37.6956522,7.7 C39.5321014,7.7 41.0217391,6.22204568 41.0217391,4.4" id="Fill-4" fill="#EC1D24"></path>
                </g>
            </g>
        </g>
    </g>
</svg>