<?xml version="1.0" encoding="UTF-8"?>
<svg width="138px" height="40px" viewBox="0 0 138 40" version="1.1" xmlns="http://www.w3.org/2000/svg" xmlns:xlink="http://www.w3.org/1999/xlink">
    <!-- Generator: Sketch 52.4 (67378) - http://www.bohemiancoding.com/sketch -->
    <title>brand/logo-text-white</title>
    <desc>Created with Sketch.</desc>
    <g id="brand/logo-text-white" stroke="none" stroke-width="1" fill="none" fill-rule="evenodd">
        <path d="M7.3560905,22.1573074 C7.3560905,21.6918349 7.21063254,21.2970205 6.91971225,20.9728522 C6.62879196,20.6486838 6.25891314,20.3453001 5.8100647,20.0626918 C5.36121626,19.7800835 4.88328295,19.5057914 4.37625045,19.2398071 C3.86921795,18.9738228 3.39128464,18.6621272 2.9424362,18.3047108 C2.49358776,17.9472945 2.12370894,17.5358563 1.83278865,17.0703838 C1.54186836,16.6049113 1.3964104,16.0313914 1.3964104,15.3498067 C1.3964104,14.9009583 1.50030894,14.4853641 1.70810915,14.1030117 C1.91590936,13.7206593 2.19435745,13.3923399 2.5434618,13.1180436 C2.89256615,12.8437474 3.29984844,12.6276384 3.7653209,12.4697102 C4.23079336,12.3117821 4.72950637,12.2328192 5.2614749,12.2328192 C6.15917179,12.2328192 6.89477348,12.2826905 7.46830205,12.3824346 C8.04183062,12.4821787 8.59457087,12.6234807 9.1265394,12.8063449 C9.06004333,13.3383134 8.98108044,13.8744299 8.88964835,14.4147104 C8.79821626,14.954991 8.66938206,15.5077312 8.5031419,16.0729478 L7.8797444,16.0729478 L6.9321802,13.529486 C6.732692,13.4463659 6.50827115,13.3923387 6.2589109,13.3674026 C6.00955065,13.3424666 5.75188226,13.3299988 5.485898,13.3299988 C5.1866657,13.3299988 4.92484137,13.384026 4.70041715,13.4920821 C4.47599293,13.6001383 4.28481961,13.7372843 4.12689145,13.9035245 C3.96896329,14.0697647 3.84844098,14.260938 3.7653209,14.4770502 C3.68220082,14.6931624 3.6406414,14.9092714 3.6406414,15.1253836 C3.6406414,15.574232 3.78609936,15.9607346 4.07701965,16.2849029 C4.36793994,16.6090713 4.73781876,16.9082991 5.1866672,17.1825953 C5.63551564,17.4568916 6.11344895,17.7270278 6.62048145,17.9930121 C7.12751395,18.2589964 7.60544726,18.5582242 8.0542957,18.8907045 C8.50314414,19.2231848 8.87302296,19.6096874 9.16394325,20.0502239 C9.45486354,20.4907603 9.6003215,21.0185649 9.6003215,21.6336535 C9.6003215,22.1988701 9.47979919,22.705895 9.23875095,23.1547434 C8.99770271,23.6035918 8.66522737,23.9859385 8.24131495,24.3017948 C7.81740253,24.6176511 7.3270014,24.8628517 6.77009685,25.0374039 C6.2131923,25.211956 5.61889263,25.2992308 4.98718,25.2992308 C4.27234729,25.2992308 3.61570849,25.2368917 3.0172439,25.1122115 C2.41877931,24.9875314 1.79538804,24.8088259 1.1470514,24.5760897 C1.18029943,23.9776251 1.25510638,23.3999492 1.3714745,22.8430446 C1.48784262,22.2861401 1.63745652,21.7500236 1.8203207,21.2346791 L2.4437182,21.2346791 L3.5408978,23.9526922 C3.72376198,24.0856843 3.94402689,24.1604913 4.20169915,24.1771153 C4.45937141,24.1937393 4.69626009,24.2020512 4.9123723,24.2020512 C5.64382902,24.2020512 6.23397276,24.002566 6.6828212,23.6035896 C7.13166964,23.2046132 7.3560905,22.722524 7.3560905,22.1573074 Z M17.1060274,29.98718 L11.5702576,29.98718 L11.5702576,29.3637825 C12.1354742,29.0977982 12.6840585,28.898313 13.216027,28.7653209 L13.216027,13.9783322 L11.5702576,13.778845 L11.5702576,13.1305116 C12.1022261,12.8977754 12.6466545,12.710758 13.2035591,12.5694539 C13.7604636,12.4281497 14.304892,12.3159393 14.8368605,12.2328192 L15.460258,12.2328192 L15.460258,15.02564 L15.4851939,15.02564 C15.8176742,14.1778152 16.2831397,13.5003967 16.8816043,12.9933641 C17.4800689,12.4863316 18.2613859,12.2328192 19.2255789,12.2328192 C20.7051164,12.2328192 21.8521563,12.7232203 22.6667331,13.7040373 C23.4813099,14.6848543 23.8885922,16.2807359 23.8885922,18.4917301 C23.8885922,19.5390431 23.7514461,20.4865979 23.4771498,21.3344227 C23.2028536,22.1822475 22.8121951,22.8970695 22.3051625,23.4789101 C21.79813,24.0607507 21.1830507,24.5095924 20.4599059,24.8254487 C19.7367612,25.141305 18.9346645,25.2992308 18.0535916,25.2992308 C17.438503,25.2992308 16.9564137,25.2618273 16.6073094,25.1870192 C16.2582051,25.1122112 15.8758584,24.983377 15.460258,24.8005128 L15.460258,28.7653209 C15.7262423,28.7985689 15.9922225,28.8609081 16.2582068,28.9523401 C16.5241911,29.0437722 16.8067951,29.1809183 17.1060274,29.3637825 L17.1060274,29.98718 Z M18.4276301,13.778845 C17.6130533,13.778845 16.9647264,14.0365134 16.4826299,14.5518579 C16.0005334,15.0672024 15.6597462,15.7737125 15.460258,16.6714094 L15.460258,23.6534614 C15.7594903,23.8363256 16.0961216,23.9734717 16.4701619,24.0649037 C16.8442023,24.1563358 17.3304475,24.2020512 17.9289121,24.2020512 C18.4775046,24.2020512 18.9720617,24.0607492 19.4125982,23.7781409 C19.8531346,23.4955326 20.2271693,23.0965622 20.5347137,22.5812177 C20.842258,22.0658732 21.0791466,21.4632616 21.2453868,20.773365 C21.411627,20.0834683 21.4947458,19.3229309 21.4947458,18.4917301 C21.4947458,17.8101454 21.4407186,17.1825982 21.3326625,16.6090697 C21.2246063,16.0355411 21.0500568,15.5368281 20.8090086,15.1129156 C20.5679603,14.6890032 20.2521087,14.3606838 19.8614443,14.1279476 C19.47078,13.8952114 18.9928467,13.778845 18.4276301,13.778845 Z" id="sp" fill="#FFFFFF"></path>
        <path d="M47.6476293,23.254487 C47.348397,23.8363276 46.8621518,24.3225728 46.1888791,24.7132372 C45.5156065,25.1039015 44.7301335,25.2992308 43.8324366,25.2992308 C42.8516196,25.2992308 41.9996516,25.145461 41.2765068,24.8379167 C40.5533621,24.5303723 39.9507506,24.0898425 39.4686541,23.516314 C38.9865576,22.9427854 38.6249907,22.252899 38.3839424,21.4466343 C38.1428942,20.6403695 38.0223719,19.746842 38.0223719,18.766025 C38.0223719,16.6547749 38.5377087,15.0381136 39.5683977,13.9159924 C40.5990867,12.7938713 42.003795,12.2328192 43.7825648,12.2328192 C44.5971416,12.2328192 45.3244314,12.3034702 45.9644561,12.4447743 C46.6044807,12.5860785 47.1489091,12.7730959 47.5977575,13.0058321 C47.5478855,13.5544246 47.4564547,14.169504 47.3234626,14.8510887 C47.1904705,15.5326734 47.0242328,16.0978815 46.8247446,16.5467299 L46.1514753,16.5467299 L45.1041675,13.5793578 C44.9877994,13.4962377 44.8548092,13.4338986 44.7051931,13.3923385 C44.555577,13.3507785 44.3062204,13.3299988 43.9571161,13.3299988 C42.826683,13.3299988 41.9539352,13.741437 41.3388466,14.5643259 C40.723758,15.3872147 40.4162183,16.7794552 40.4162183,18.7410891 C40.4162183,19.3728017 40.5034931,19.9878811 40.6780452,20.5863457 C40.8525974,21.1848103 41.1185777,21.7209268 41.475994,22.1947113 C41.8334104,22.6684957 42.2822521,23.0466864 42.8225326,23.3292947 C43.3628132,23.611903 43.9903604,23.753205 44.7051931,23.753205 C45.2870337,23.753205 45.7940586,23.6700862 46.226283,23.503846 C46.6585074,23.3376058 47.0242303,23.1381206 47.3234626,22.9053844 L47.6476293,23.254487 Z M59.7415408,23.254487 C59.6085487,23.5370953 59.4007516,23.8030756 59.1181433,24.0524358 C58.835535,24.301796 58.5113716,24.517905 58.1456432,24.7007692 C57.7799148,24.8836334 57.3809444,25.0290913 56.94872,25.1371475 C56.5164956,25.2452036 56.0759657,25.2992308 55.6271173,25.2992308 C54.6463003,25.2992308 53.7818644,25.145461 53.0337837,24.8379167 C52.285703,24.5303723 51.6623117,24.0898425 51.1635912,23.516314 C50.6648707,22.9427854 50.28668,22.257055 50.0290078,21.4591022 C49.7713355,20.6611494 49.6425013,19.763466 49.6425013,18.766025 C49.6425013,16.6381509 50.1329024,15.0173336 51.1137194,13.9035245 C52.0945364,12.7897154 53.4826209,12.2328192 55.2780147,12.2328192 C55.8598553,12.2328192 56.4333752,12.3117821 56.9985918,12.4697102 C57.5638084,12.6276384 58.0666773,12.8894627 58.5072137,13.2551911 C58.9477502,13.6209195 59.3051612,14.1071646 59.5794574,14.7139412 C59.8537537,15.3207179 59.9908998,16.0729433 59.9908998,16.9706402 C59.9908998,17.2532485 59.978432,17.5400085 59.953496,17.8309287 C59.9285599,18.121849 59.8828446,18.4335447 59.8163485,18.766025 L52.0363477,18.766025 C52.0363477,19.4642337 52.1236225,20.1167165 52.2981747,20.7234932 C52.4727268,21.3302698 52.7345512,21.8580744 53.0836555,22.3069228 C53.4327598,22.7557712 53.8732897,23.1090263 54.4052582,23.3666986 C54.9372267,23.6243708 55.560618,23.753205 56.2754507,23.753205 C56.8572913,23.753205 57.447435,23.6700862 58.0458996,23.503846 C58.6443642,23.3376058 59.0932059,23.1214969 59.3924382,22.8555126 L59.7415408,23.254487 Z M55.1782711,13.3299988 C54.2307022,13.3299988 53.5075683,13.6500063 53.0088478,14.290031 C52.5101273,14.9300556 52.2108995,16.0563158 52.1111554,17.6688454 L57.5970534,17.6688454 C57.6136774,17.5192293 57.6261452,17.3737713 57.6344572,17.2324671 C57.6427693,17.091163 57.6469252,16.9540169 57.6469252,16.8210248 C57.6469252,15.7570877 57.44744,14.9092756 57.0484636,14.277563 C56.6494872,13.6458504 56.0260959,13.3299988 55.1782711,13.3299988 Z M70.4639778,22.5313459 C70.3808577,22.8970743 70.2395557,23.2461734 70.0400675,23.5786537 C69.8405793,23.911134 69.5953787,24.2062059 69.3044584,24.4638781 C69.0135382,24.7215504 68.6810628,24.9251916 68.3070225,25.0748077 C67.9329821,25.2244238 67.5298557,25.2992308 67.0976313,25.2992308 C65.4518537,25.2992308 64.2216949,24.7755821 63.4071181,23.7282691 C62.5925413,22.6809561 62.185259,21.0518269 62.185259,18.8408327 C62.185259,16.7129586 62.7047517,15.0921413 63.7437527,13.9783322 C64.7827538,12.8645231 66.1833062,12.3076269 67.9454519,12.3076269 C68.5605405,12.3076269 69.0426298,12.3367185 69.3917341,12.3949025 C69.7408384,12.4530866 70.1231851,12.5569852 70.5387855,12.7066013 L70.5387855,7.9937162 L68.6436571,7.794229 L68.6436571,7.1458956 C69.1257536,6.9464074 69.6868057,6.77185785 70.3268303,6.6222417 C70.966855,6.47262555 71.5777784,6.3479473 72.159619,6.2482032 L72.7830165,6.2482032 L72.7830165,23.5786537 L74.4287859,23.7781409 L74.4287859,24.3017948 C73.9466894,24.534531 73.4479764,24.7340162 72.9326319,24.9002564 C72.4172874,25.0664966 71.9102625,25.1828629 71.411542,25.249359 L70.7881445,25.249359 L70.5637214,22.5313459 L70.4639778,22.5313459 Z M67.5963493,23.753205 C68.4109261,23.753205 69.059253,23.4955366 69.5413495,22.9801921 C70.023446,22.4648476 70.3559213,21.7666494 70.5387855,20.8855765 L70.5387855,13.8536527 C70.2561772,13.6874125 69.9237019,13.5710462 69.5413495,13.5045501 C69.1589971,13.438054 68.668596,13.4048065 68.0701314,13.4048065 C66.9396983,13.4048065 66.0752624,13.8993636 65.4767978,14.8884926 C64.8783332,15.8776215 64.5791054,17.1950551 64.5791054,18.8408327 C64.5791054,19.5224174 64.6372886,20.1582765 64.7536567,20.748429 C64.8700248,21.3385816 65.0528863,21.8580744 65.3022465,22.3069228 C65.5516067,22.7557712 65.8633024,23.1090263 66.2373427,23.3666985 C66.6113831,23.6243708 67.0643808,23.753205 67.5963493,23.753205 Z M81.3110943,29.98718 L75.7753245,29.98718 L75.7753245,29.3637825 C76.3405411,29.0977982 76.8891254,28.898313 77.4210939,28.7653209 L77.4210939,13.9783322 L75.7753245,13.778845 L75.7753245,13.1305116 C76.307293,12.8977754 76.8517214,12.710758 77.408626,12.5694539 C77.9655305,12.4281497 78.5099589,12.3159393 79.0419274,12.2328192 L79.6653249,12.2328192 L79.6653249,15.02564 L79.6902608,15.02564 C80.0227411,14.1778152 80.4882066,13.5003967 81.0866712,12.9933641 C81.6851358,12.4863316 82.4664528,12.2328192 83.4306458,12.2328192 C84.9101833,12.2328192 86.0572232,12.7232203 86.8718,13.7040373 C87.6863768,14.6848543 88.0936591,16.2807359 88.0936591,18.4917301 C88.0936591,19.5390431 87.956513,20.4865979 87.6822167,21.3344227 C87.4079205,22.1822475 87.017262,22.8970695 86.5102294,23.4789101 C86.0031969,24.0607507 85.3881176,24.5095924 84.6649728,24.8254487 C83.9418281,25.141305 83.1397314,25.2992308 82.2586585,25.2992308 C81.6435699,25.2992308 81.1614806,25.2618273 80.8123763,25.1870192 C80.463272,25.1122112 80.0809253,24.983377 79.6653249,24.8005128 L79.6653249,28.7653209 C79.9313092,28.7985689 80.1972894,28.8609081 80.4632737,28.9523402 C80.729258,29.0437722 81.011862,29.1809183 81.3110943,29.3637825 L81.3110943,29.98718 Z M82.632697,13.778845 C81.8181202,13.778845 81.1697933,14.0365134 80.6876968,14.5518579 C80.2056003,15.0672024 79.8648131,15.7737125 79.6653249,16.6714094 L79.6653249,23.6534614 C79.9645572,23.8363256 80.3011885,23.9734717 80.6752288,24.0649037 C81.0492692,24.1563358 81.5355144,24.2020512 82.133979,24.2020512 C82.6825715,24.2020512 83.1771286,24.0607492 83.617665,23.7781409 C84.0582015,23.4955326 84.4322362,23.0965622 84.7397806,22.5812177 C85.0473249,22.0658732 85.2842135,21.4632616 85.4504537,20.773365 C85.6166939,20.0834683 85.6998127,19.3229309 85.6998127,18.4917301 C85.6998127,17.8101454 85.6457855,17.1825982 85.5377294,16.6090697 C85.4296732,16.0355411 85.2551237,15.5368281 85.0140755,15.1129156 C84.7730272,14.6890032 84.4571756,14.3606838 84.0665112,14.1279476 C83.6758469,13.8952114 83.1979136,13.778845 82.632697,13.778845 Z M99.33975,21.7333971 C99.33975,22.0991255 99.3480619,22.414977 99.3646859,22.6809613 C99.3813099,22.9469456 99.3979337,23.2295496 99.4145577,23.5287819 L101.135135,23.7781409 L101.135135,24.3017948 C100.719534,24.517907 100.258225,24.7090803 99.7511923,24.8753205 C99.2441598,25.0415607 98.7579147,25.1662389 98.2924422,25.249359 L97.6690447,25.249359 C97.5028045,24.8670066 97.4030619,24.4472565 97.3698139,23.9900961 C97.3365659,23.5329356 97.3116302,23.0300666 97.2950062,22.4814741 L97.1703267,22.4814741 C97.1038306,22.8139544 96.9749964,23.1505857 96.7838202,23.4913781 C96.5926441,23.8321704 96.3432876,24.1355541 96.0357432,24.4015384 C95.7281989,24.6675227 95.366632,24.8836316 94.9510316,25.0498718 C94.5354312,25.216112 94.0616538,25.2992308 93.5296853,25.2992308 C92.5156203,25.2992308 91.6885879,24.9916911 91.0485633,24.3766025 C90.4085386,23.7615139 90.0885311,22.9552612 90.0885311,21.9578202 C90.0885311,21.1931154 90.2423009,20.5655682 90.5498453,20.0751598 C90.8573896,19.5847513 91.3103872,19.1982487 91.9088518,18.9156404 C92.5073164,18.6330321 93.247074,18.429391 94.1281469,18.3047108 C95.0092198,18.1800307 96.0315814,18.0844441 97.1952626,18.017948 C97.2617587,17.3031153 97.2825384,16.6589443 97.2576023,16.0854158 C97.2326663,15.5118872 97.1412356,15.0214861 96.9833074,14.6141977 C96.8253793,14.2069092 96.5926466,13.8910577 96.2851022,13.6666334 C95.9775579,13.4422092 95.5744316,13.3299988 95.0757111,13.3299988 C94.8429749,13.3299988 94.5811505,13.3424666 94.2902303,13.3674026 C93.99931,13.3923387 93.71255,13.4629897 93.4299417,13.5793578 L92.2579544,16.5716658 L91.609621,16.5716658 C91.4433808,16.0729453 91.2979229,15.5576085 91.1732427,15.02564 C91.0485626,14.4936715 90.9695997,13.9700228 90.9363517,13.4546783 C91.5680643,13.0723259 92.2704185,12.7730981 93.0434352,12.5569859 C93.816452,12.3408737 94.676732,12.2328192 95.6243009,12.2328192 C96.4721257,12.2328192 97.1495442,12.3533415 97.6565767,12.5943897 C98.1636093,12.835438 98.5501118,13.1471336 98.8160961,13.529486 C99.0820804,13.9118384 99.2566299,14.3357444 99.33975,14.8012169 C99.4228701,15.2666894 99.4644295,15.7321548 99.4644295,16.1976273 C99.4644295,17.1950683 99.4436498,18.1550908 99.4020897,19.0777238 C99.3605297,20.0003567 99.33975,20.8855723 99.33975,21.7333971 Z M94.5271213,23.753205 C94.9427217,23.753205 95.3084446,23.6700862 95.6243009,23.503846 C95.9401572,23.3376058 96.2061375,23.1381206 96.4222497,22.9053844 C96.6383619,22.6726482 96.8129115,22.4357595 96.9459036,22.1947113 C97.0788957,21.953663 97.1703265,21.7500219 97.2201985,21.5837817 L97.2201985,18.9655122 C96.2560055,18.9655122 95.4663766,19.0153835 94.851288,19.1151276 C94.2361994,19.2148717 93.7541101,19.3727975 93.4050058,19.5889097 C93.0559015,19.8050219 92.8148568,20.0751581 92.6818647,20.3993265 C92.5488726,20.7234948 92.4823775,21.0933736 92.4823775,21.508974 C92.4823775,22.2238067 92.6652389,22.776547 93.0309673,23.1672114 C93.3966957,23.5578757 93.8954087,23.753205 94.5271213,23.753205 Z M107.867828,12.2328192 C108.765525,12.2328192 109.521906,12.320094 110.136995,12.4946462 C110.752083,12.6691983 111.26742,12.9393345 111.68302,13.3050629 C112.663837,12.6401022 113.686199,12.158013 114.750136,11.8587807 C114.883128,12.0416449 114.978715,12.2660657 115.036899,12.53205 C115.095083,12.7980343 115.124175,13.0473908 115.124175,13.280127 L114.800008,13.8785886 L112.181738,13.8785886 C112.597339,14.4770532 112.805136,15.2666821 112.805136,16.2474991 C112.805136,17.4444283 112.385386,18.4169187 111.545873,19.1649994 C110.70636,19.9130801 109.480357,20.2871149 107.867828,20.2871149 C107.551971,20.2871149 107.294303,20.278803 107.094815,20.262179 C106.895327,20.245555 106.670906,20.2206193 106.421546,20.1873713 C106.338426,20.3369874 106.242839,20.5032251 106.134783,20.6860893 C106.026727,20.8689535 105.972699,21.0601268 105.972699,21.259615 C105.972699,21.5920953 106.163873,21.8539197 106.546225,22.0450959 C106.928577,22.236272 107.406511,22.4066657 107.980039,22.5562818 C108.553568,22.7058979 109.176959,22.8596678 109.850232,23.017596 C110.523505,23.1755241 111.151052,23.3916331 111.732892,23.6659293 C112.314733,23.9402256 112.800978,24.2976366 113.191642,24.7381731 C113.582307,25.1787095 113.785948,25.7480735 113.802572,26.4462822 C113.819196,27.0447468 113.68205,27.5850192 113.39113,28.0671157 C113.100209,28.5492122 112.697083,28.9523385 112.181738,29.2765069 C111.666394,29.6006752 111.047159,29.8500317 110.324014,30.0245838 C109.600869,30.199136 108.807084,30.2864108 107.942635,30.2864108 C106.130618,30.2864108 104.763313,29.9788711 103.84068,29.3637825 C102.918047,28.7486939 102.456738,27.9756887 102.456738,27.0447438 C102.456738,26.5958954 102.527389,26.2052368 102.668693,25.8727565 C102.809997,25.5402762 103.013638,25.2493602 103.279622,25 C103.545606,24.7506398 103.878082,24.5303748 104.277058,24.3391987 C104.676035,24.1480225 105.133188,23.969317 105.648533,23.8030768 C105.282804,23.6368366 104.979421,23.4082598 104.738372,23.1173396 C104.497324,22.8264193 104.376802,22.4731642 104.376802,22.0575638 C104.376802,21.6752114 104.538884,21.2970207 104.863052,20.9229804 C105.18722,20.54894 105.51554,20.2538681 105.84802,20.0377559 C104.900451,19.7883957 104.173161,19.3146183 103.666129,18.6164096 C103.159096,17.9182009 102.905584,17.128572 102.905584,16.2474991 C102.905584,15.6822825 103.013638,15.1544779 103.22975,14.6640695 C103.445863,14.173661 103.761714,13.745599 104.177315,13.3798706 C104.592915,13.0141422 105.108252,12.7315382 105.72334,12.53205 C106.338429,12.3325618 107.053251,12.2328192 107.867828,12.2328192 Z M111.558341,27.0198079 C111.558341,26.4878394 111.379636,26.0639333 111.022219,25.748077 C110.664803,25.4322207 110.220117,25.1745523 109.688149,24.9750641 C109.15618,24.7755759 108.58266,24.6093382 107.967571,24.4763461 C107.352483,24.343354 106.778963,24.1937401 106.246994,24.0274999 C105.615282,24.4098523 105.199687,24.8129786 105.000199,25.236891 C104.800711,25.6608035 104.700968,26.0971774 104.700968,26.5460258 C104.700968,27.4270987 105.01682,28.0878934 105.648533,28.5284298 C106.280245,28.9689663 107.194553,29.1892312 108.391482,29.1892312 C109.00657,29.1892312 109.517751,29.131048 109.92504,29.0146799 C110.332328,28.8983118 110.656491,28.7445419 110.89754,28.5533657 C111.138588,28.3621896 111.308982,28.1336128 111.408726,27.8676285 C111.50847,27.6016442 111.558341,27.3190402 111.558341,27.0198079 Z M105.149815,16.2474991 C105.149815,16.6464755 105.19553,17.0246662 105.286962,17.3820825 C105.378394,17.7394989 105.528008,18.0511945 105.735808,18.3171788 C105.943609,18.5831631 106.222057,18.7951161 106.571161,18.9530442 C106.920265,19.1109724 107.352483,19.1899353 107.867828,19.1899353 C108.832021,19.1899353 109.521907,18.9073313 109.937508,18.3421147 C110.353108,17.7768981 110.560905,17.0786999 110.560905,16.2474991 C110.560905,15.3498022 110.357264,14.6391362 109.949975,14.1154796 C109.542687,13.5918231 108.848645,13.3299988 107.867828,13.3299988 C106.853763,13.3299988 106.147253,13.5835112 105.748276,14.0905438 C105.3493,14.5975763 105.149815,15.3165542 105.149815,16.2474991 Z M125.946355,23.254487 C125.813363,23.5370953 125.605566,23.8030756 125.322958,24.0524358 C125.04035,24.301796 124.716186,24.517905 124.350458,24.7007692 C123.984729,24.8836334 123.585759,25.0290913 123.153535,25.1371475 C122.72131,25.2452036 122.28078,25.2992308 121.831932,25.2992308 C120.851115,25.2992308 119.986679,25.145461 119.238598,24.8379167 C118.490517,24.5303723 117.867126,24.0898425 117.368406,23.516314 C116.869685,22.9427854 116.491495,22.257055 116.233822,21.4591022 C115.97615,20.6611494 115.847316,19.763466 115.847316,18.766025 C115.847316,16.6381509 116.337717,15.0173336 117.318534,13.9035245 C118.299351,12.7897154 119.687435,12.2328192 121.482829,12.2328192 C122.06467,12.2328192 122.63819,12.3117821 123.203406,12.4697102 C123.768623,12.6276384 124.271492,12.8894627 124.712028,13.2551911 C125.152565,13.6209195 125.509976,14.1071646 125.784272,14.7139412 C126.058568,15.3207179 126.195714,16.0729433 126.195714,16.9706402 C126.195714,17.2532485 126.183246,17.5400085 126.15831,17.8309287 C126.133374,18.121849 126.087659,18.4335447 126.021163,18.766025 L118.241162,18.766025 C118.241162,19.4642337 118.328437,20.1167165 118.502989,20.7234932 C118.677541,21.3302698 118.939366,21.8580744 119.28847,22.3069228 C119.637574,22.7557712 120.078104,23.1090263 120.610073,23.3666986 C121.142041,23.6243708 121.765432,23.753205 122.480265,23.753205 C123.062106,23.753205 123.65225,23.6700862 124.250714,23.503846 C124.849179,23.3376058 125.29802,23.1214969 125.597253,22.8555126 L125.946355,23.254487 Z M121.383086,13.3299988 C120.435517,13.3299988 119.712383,13.6500063 119.213662,14.290031 C118.714942,14.9300556 118.415714,16.0563158 118.31597,17.6688454 L123.801868,17.6688454 C123.818492,17.5192293 123.83096,17.3737713 123.839272,17.2324671 C123.847584,17.091163 123.85174,16.9540169 123.85174,16.8210248 C123.85174,15.7570877 123.652254,14.9092756 123.253278,14.277563 C122.854302,13.6458504 122.23091,13.3299988 121.383086,13.3299988 Z M134.723792,22.1573074 C134.723792,21.6918349 134.578334,21.2970205 134.287414,20.9728522 C133.996494,20.6486838 133.626615,20.3453001 133.177766,20.0626918 C132.728918,19.7800835 132.250985,19.5057914 131.743952,19.2398071 C131.23692,18.9738228 130.758986,18.6621272 130.310138,18.3047108 C129.861289,17.9472945 129.491411,17.5358563 129.20049,17.0703838 C128.90957,16.6049113 128.764112,16.0313914 128.764112,15.3498067 C128.764112,14.9009583 128.868011,14.4853641 129.075811,14.1030117 C129.283611,13.7206593 129.562059,13.3923399 129.911163,13.1180437 C130.260268,12.8437474 130.66755,12.6276384 131.133023,12.4697102 C131.598495,12.3117821 132.097208,12.2328192 132.629176,12.2328192 C133.526873,12.2328192 134.262475,12.2826905 134.836004,12.3824346 C135.409532,12.4821787 135.962272,12.6234807 136.494241,12.8063449 C136.427745,13.3383134 136.348782,13.8744299 136.25735,14.4147105 C136.165918,14.954991 136.037084,15.5077312 135.870844,16.0729478 L135.247446,16.0729478 L134.299882,13.529486 C134.100394,13.4463659 133.875973,13.3923387 133.626613,13.3674026 C133.377252,13.3424666 133.119584,13.3299988 132.8536,13.3299988 C132.554367,13.3299988 132.292543,13.384026 132.068119,13.4920822 C131.843695,13.6001383 131.652521,13.7372843 131.494593,13.9035245 C131.336665,14.0697647 131.216143,14.260938 131.133023,14.4770502 C131.049902,14.6931624 131.008343,14.9092714 131.008343,15.1253836 C131.008343,15.574232 131.153801,15.9607346 131.444721,16.2849029 C131.735642,16.6090713 132.10552,16.9082991 132.554369,17.1825953 C133.003217,17.4568916 133.481151,17.7270278 133.988183,17.9930121 C134.495216,18.2589964 134.973149,18.5582242 135.421997,18.8907045 C135.870846,19.2231848 136.240725,19.6096874 136.531645,20.0502239 C136.822565,20.4907603 136.968023,21.0185649 136.968023,21.6336535 C136.968023,22.1988701 136.847501,22.705895 136.606453,23.1547434 C136.365404,23.6035918 136.032929,23.9859385 135.609017,24.3017948 C135.185104,24.6176511 134.694703,24.8628517 134.137798,25.0374039 C133.580894,25.211956 132.986594,25.2992308 132.354882,25.2992308 C131.640049,25.2992308 130.98341,25.2368917 130.384946,25.1122116 C129.786481,24.9875314 129.16309,24.8088259 128.514753,24.5760897 C128.548001,23.9776251 128.622808,23.3999492 128.739176,22.8430447 C128.855544,22.2861401 129.005158,21.7500236 129.188022,21.2346791 L129.81142,21.2346791 L130.908599,23.9526922 C131.091464,24.0856843 131.311728,24.1604913 131.569401,24.1771153 C131.827073,24.1937393 132.063962,24.2020512 132.280074,24.2020512 C133.011531,24.2020512 133.601674,24.002566 134.050523,23.6035896 C134.499371,23.2046132 134.723792,22.722524 134.723792,22.1573074 Z" id="cedpages" fill="#FFFFFF"></path>
        <g id="Group" transform="translate(27.000000, 1.000000)" fill="#FFFFFF">
            <path d="M4.11031266,22.0153893 C4.22074722,20.9243304 6.09123257,13.9967034 6.07545621,13.2371432 C6.04193143,11.7777524 5.14267859,10.9076926 4.11031266,11.6244466 C3.23768243,12.2316966 2.85214749,13.56466 2.57901916,14.7134575 C2.01501409,17.0767548 1.94993658,19.64811 2.32363924,22.0153893 C3.00498103,26.3527468 4.46232282,30.3018625 6.43239648,34.0339609 C7.1709276,35.4346178 8.12539773,36.6650456 9,38 C8.79392122,37.8536627 8.55037358,37.7182758 8.33837866,37.5261459 C4.39231519,33.9204749 1.92331396,29.1172273 0.72529619,23.3015646 C-0.0171790209,19.6978846 -0.352426792,16.0623488 0.517245367,12.4576732 C0.811080178,11.2431733 1.27253888,10.0356418 1.86119452,9.00431239 C3.35600517,6.38218718 6.61382469,6.33639456 8.13624398,8.84602921 C8.74067599,9.86043528 8.98619568,11.0142102 8.73180178,12.4546867 C8.60559086,13.1774137 7.79606609,14.8229616 6.92442189,16.6228106 C5.83289459,18.8785949 4.59740795,21.2010771 4.11031266,22.0153893" id="Fill-1"></path>
            <path d="M10,3 C10,1.34359484 8.65640516,0 7,0 C5.34359484,0 4,1.34359484 4,3 C4,4.65640516 5.34359484,6 7,6 C8.65640516,6 10,4.65640516 10,3" id="Fill-4"></path>
        </g>
    </g>
</svg>