<?xml version="1.0" encoding="UTF-8"?>
<svg width="699px" height="779px" viewBox="0 0 699 779" version="1.1" xmlns="http://www.w3.org/2000/svg" xmlns:xlink="http://www.w3.org/1999/xlink">
    <!-- Generator: Sketch 52.4 (67378) - http://www.bohemiancoding.com/sketch -->
    <title>Group 279</title>
    <desc>Created with Sketch.</desc>
    <defs>
        <path d="M16.4565,0.742222222 L1.0755,9.51377778 C0.7164,9.71733333 0.7164,10.2275556 1.0755,10.4328889 L10.4139,15.7564444 C10.5804,15.8524444 10.7847,15.8524444 10.9512,15.7564444 L26.3331,6.98577778 C26.6913,6.78222222 26.6913,6.272 26.3331,6.06666667 L16.9938,0.742222222 C16.911,0.694222222 16.8183,0.671111111 16.7256,0.671111111 C16.632,0.671111111 16.5393,0.694222222 16.4565,0.742222222" id="path-1"></path>
    </defs>
    <g id="Pages" stroke="none" stroke-width="1" fill="none" fill-rule="evenodd">
        <g id="1366x768-copy" transform="translate(-236.000000, -1374.000000)">
            <g id="About-Copy" transform="translate(0.000000, 1361.000000)">
                <g id="Group-279" transform="translate(237.000000, 13.000000)">
                    <g id="Group-275">
                        <polygon id="Fill-3" fill="#88BDEB" points="95.8775952 466.072581 186.200022 414.004156 151.921467 398.154933 61.5981075 449.098063"></polygon>
                        <path d="M258.51586,265.976614 L9.82292637,409.561246 C4.61886587,412.566072 0.361082949,409.346815 0.361082949,402.407653 L0.361082949,163.758452 C0.361082949,156.81929 4.61886587,148.683045 9.82292637,145.678219 L258.51586,2.09358705 C263.71992,-0.911239052 267.977703,2.30801771 267.977703,9.2471802 L267.977703,247.89638 C267.977703,254.835543 263.71992,262.971788 258.51586,265.976614 Z" id="Stroke-5" stroke="#FFFFFF" stroke-linecap="round" stroke-linejoin="round"></path>
                        <path d="M435.422125,402.250466 L530.26431,346.925492" id="Stroke-7" stroke="#FFFFFF"></path>
                        <path d="M160.878567,651.763748 L214.376346,619.91427" id="Stroke-9" stroke="#FFFFFF"></path>
                        <path d="M4.37488475,489.57418 L402.201163,736.454721 C405.184502,738.306283 409.055383,738.310944 412.199075,736.465908 L692.541497,572.021835 C698.763622,568.372785 699.082466,559.744282 693.12791,556.153967 L295.631663,316.497875 C292.718247,314.741408 288.986277,314.72183 285.906913,316.446598 L5.23445906,473.667155 C-1.08928554,477.20899 -1.55822901,485.892499 4.37488475,489.57418 Z" id="Stroke-11" stroke="#FFFFFF" stroke-linecap="round" stroke-linejoin="round"></path>
                        <polygon id="Fill-13" fill="#88BDEB" points="194.257273 563.712647 240.881255 590.846516 273.369807 572.952744 225.234578 545.161599"></polygon>
                        <path d="M589.453459,607.152289 L323.175612,453.4139 C314.02329,448.130515 297.889024,448.798047 287.320549,454.899997 L197.325357,506.860275 C186.757813,512.962225 185.598973,522.276907 194.751295,527.561224 L367.020428,627.02162 L335.351361,645.987546 L381.976275,673.121415 L415.18549,654.831412 L462.917036,682.388548 L589.453459,607.152289 Z" id="Fill-15" fill="#88BDEB"></path>
                        <polygon id="Fill-17" fill="#88BDEB" points="574.370168 544.573033 482.350967 585.637436 415.847698 550.632098 509.125495 497.593141"></polygon>
                        <path d="M512.901655,458.793499 L480.066289,484.159713 C474.703739,487.442367 470.678097,484.183953 470.683691,478.542562 L470.058122,469.355607 C470.062783,463.713284 474.454817,456.411454 479.817367,453.1288 L512.925894,432.856713 C518.288445,429.573127 522.671155,431.503935 522.666494,437.145326 L522.6609,442.56576 C522.655306,448.208083 518.264205,455.510845 512.901655,458.793499" id="Fill-19" fill="#8E3361"></path>
                        <path d="M522.169488,401.731543 C519.00715,408.212943 514.956336,413.418946 510.000265,418.584861 C505.957842,422.798889 503.345557,427.064195 501.073558,432.419367 C499.011326,437.279485 496.576176,441.279083 492.491799,444.642847 C487.968313,448.366482 483.623827,451.972646 479.695143,456.360084 C476.478732,459.951331 481.773225,465.281331 485.006418,461.671438 C492.406961,453.408399 502.105607,448.24062 506.850047,437.848192 C509.446483,432.160186 511.625252,427.717742 515.997707,423.188594 C521.150492,417.850203 525.389629,412.21627 528.655452,405.522304 C530.767096,401.195467 524.291387,397.383263 522.169488,401.731543" id="Fill-21" fill="#FFC2B0"></path>
                        <path d="M507.179519,407.487422 L498.450458,429.693114 C497.436123,436.588459 512.851591,439.341562 514.195957,433.782214 L520.731333,411.733149 C521.574126,408.172667 519.582747,404.554383 516.12394,403.361962 L516.123007,403.361962 C512.518762,402.119197 508.575162,403.938128 507.179519,407.487422" id="Fill-23" fill="#3856A6"></path>
                        <path d="M574.188557,544.844335 C575.250439,544.686775 575.984154,543.698529 575.826596,542.635699 L567.923547,489.354342 C567.765989,488.292444 566.776826,487.559651 565.714944,487.717211 C564.65213,487.874771 563.919348,488.863016 564.076905,489.925847 L571.979955,543.206271 C572.137512,544.268169 573.126675,545.001895 574.188557,544.844335" id="Fill-25" fill="#283D75"></path>
                        <path d="M511.66935,456.256877 L528.257642,412.376907 C530.986464,405.15712 538.575331,402.00126 544.693039,405.540298 L569.157344,419.689924 C573.565226,422.239785 576.031141,427.654625 575.322598,433.22889 L568.057238,490.347622 L511.66935,456.256877 Z" id="Fill-27" fill="#D84177"></path>
                        <path d="M524.381913,509.602377 L477.398066,482.475966 C473.044257,479.962466 474.806291,474.448801 481.31463,470.222653 L498.203121,459.256855 C504.710527,455.031639 513.598078,453.631314 517.951887,456.144814 L564.935734,483.271224 C569.289543,485.784725 567.527509,491.299322 561.01917,495.524538 L544.130679,506.490335 C537.623273,510.715551 528.735722,512.116809 524.381913,509.602377" id="Fill-29" fill="#8E3361"></path>
                        <path d="M502.566719,465.678308 C503.743273,467.471135 512.396818,444.206341 507.547029,411.967158 L550.852047,432.749217 C549.643795,453.692566 542.755081,460.608421 537.37202,486.229155 L502.566719,465.678308 Z" id="Fill-31" fill="#4264BF"></path>
                        <path d="M526.40443,477.228382 C527.56327,478.838477 550.263677,463.207414 546.871994,436.987206 C546.440342,433.654208 544.08537,434.419632 547.466797,435.419998 L551.517611,432.776907 C552.398628,449.79431 559.239795,450.740602 552.278362,473.867415 C550.681344,479.173175 541.925247,489.369819 536.69042,486.228876 L526.40443,477.228382 Z" id="Fill-33" fill="#3856A6"></path>
                        <path d="M509.990476,404.084127 C507.856457,406.181819 507.692373,409.090617 507.546936,411.966785 C507.325982,416.315066 509.511277,422.243607 513.542513,423.890062 L556.327311,440.702357 C556.327311,440.702357 562.059982,426.757839 554.235246,420.869386 C550.02128,417.696745 540.468072,410.508656 535.346054,406.523043 C527.822448,400.670951 516.788758,397.403214 509.990476,404.084127" id="Fill-35" fill="#4264BF"></path>
                        <path d="M542.557062,416.902419 L524.46498,411.450287 L528.728357,401.404677 C535.113633,402.01627 539.36489,404.56613 544.311637,408.823977 L542.557062,416.902419 Z" id="Fill-37" fill="#424268"></path>
                        <path d="M534.415811,414.486065 C534.415811,414.486065 529.208954,413.867946 529.274215,404.688449 L525.861089,403.806486 C525.338073,404.131862 524.365691,403.758939 523.550867,406.73766 C523.066074,408.510908 522.979371,410.368997 523.217106,412.190725 L523.911664,417.506741 C524.066425,418.699162 525.426641,419.390933 526.480132,418.813835 L534.415811,414.486065 Z" id="Fill-39" fill="#FFFFFF"></path>
                        <path d="M530.379821,410.463719 L526.0372,394.443884 L537.047582,397.491597 L540.579108,410.572799 C541.341724,412.702189 533.570128,418.631662 530.379821,410.463719" id="Fill-41" fill="#FFC2B0"></path>
                        <path d="M529.912369,407.261617 L526.787323,407.365103 C521.973893,407.526392 517.905366,403.719782 517.744079,398.90628 L517.212672,383.014171 C517.052317,378.201601 520.85887,374.131148 525.6723,373.970791 L528.796414,373.866373 C533.609844,373.706016 537.679304,377.512626 537.839658,382.325196 L538.371065,398.218237 C538.53142,403.030807 534.725799,407.100328 529.912369,407.261617" id="Fill-43" fill="#FFC2B0"></path>
                        <path d="M527.648948,386.50734 C524.803589,387.488127 521.601162,387.827487 518.678423,386.700327 C514.74601,385.182531 511.96498,379.656746 515.051803,376.784308 C516.719675,375.232016 520.996104,373.831691 524.550938,372.38848 C534.634621,368.296583 545.564826,373.465294 545.947998,384.978356 C545.947998,384.978356 547.634517,399.210025 539.679259,402.435808 C539.044367,402.694057 538.31345,402.522513 537.816537,402.050765 L537.757803,401.995759 C537.197495,401.464344 537.053921,400.642049 537.364375,399.93536 C538.094361,398.273057 538.763747,395.072446 534.777262,392.663364 C533.944724,392.160851 533.525192,391.232273 533.359244,390.134015 C532.949035,387.411678 530.250978,385.61046 527.648948,386.50734" id="Fill-45" fill="#283D75"></path>
                        <path d="M540.133845,398.558622 C538.731676,399.724939 537.1272,399.322182 536.551043,397.659878 C535.973953,395.997574 536.642407,393.705031 538.044576,392.539647 C539.446745,391.373331 541.051222,391.776087 541.628311,393.438391 C542.205401,395.100695 541.536014,397.393238 540.133845,398.558622" id="Fill-47" fill="#FFC2B0"></path>
                        <path d="M529.381988,407.278958 C529.381988,407.278958 533.893354,404.9687 533.911068,404.926747 C533.911068,404.926747 532.369055,408.2094 530.127822,409.491323 L529.381988,407.278958 Z" id="Fill-49" fill="#EA8A6C"></path>
                        <path d="M531.783761,413.757747 C531.783761,413.757747 537.484734,416.481949 544.311917,408.823977 L547.62249,414.067273 C547.878871,414.84202 547.909636,414.934319 547.238385,415.515146 L538.472965,423.075225 C537.44651,423.962782 535.768382,423.65512 535.303168,422.493465 L531.783761,413.757747 Z" id="Fill-51" fill="#FFFFFF"></path>
                        <path d="M210.875119,321.76886 L131.90709,368.301245 C122.185137,374.030272 109.467726,367.505054 108.18862,356.130907 L86.1855686,160.485308 C85.5161821,154.526933 88.3317075,148.823078 93.4248251,145.821048 L172.392854,99.289596 C182.114807,93.5605683 194.832218,100.085786 196.112257,111.459002 L218.114376,307.1046 C218.784694,313.062975 215.968237,318.767763 210.875119,321.76886" id="Fill-53" fill="#4265C2"></path>
                        <path d="M220.766563,246.266521 C221.464851,246.399841 222.172461,246.532228 222.890327,246.424081 C224.547944,246.17329 225.978082,244.702109 227.286089,243.300852 C227.405423,243.173126 227.528486,243.038873 227.593746,242.862667 C227.728929,242.5 227.569507,242.108431 227.382116,241.819416 C226.231666,240.046167 224.146126,239.773001 222.384092,239.013171 C221.587914,238.670082 220.836485,238.20859 220.045901,237.853381 C218.80968,237.296793 217.493282,237.001252 216.18341,236.708507 C214.595715,236.353298 208.850924,235.227071 208.945086,239.253706 C208.986107,240.994324 210.646521,242.279975 211.692554,243.051926 C212.95115,243.980504 214.352386,244.612608 215.788118,245.084355 C217.414037,245.618567 219.092165,245.94674 220.766563,246.266521" id="Fill-55" fill="#FFC2B0"></path>
                        <polygon id="Fill-57" fill="#8CB2DE" points="76.2086332 456.995731 83.4320407 456.995731 83.4320407 242.117567 76.2086332 242.117567"></polygon>
                        <polygon id="Fill-59" fill="#8CB2DE" points="163.521618 405.837238 170.745026 405.837238 170.745026 190.958142 163.521618 190.958142"></polygon>
                        <path d="M192.89426,332.157186 L113.926232,378.690503 C104.204278,384.418599 91.4868673,377.893381 90.207761,366.520165 L68.2047098,170.873635 C67.5353233,164.916192 70.3508487,159.211404 75.4439663,156.210307 L154.411995,109.677922 C164.133948,103.948894 176.851359,110.474113 178.131398,121.847328 L200.133517,317.493859 C200.803836,323.452234 197.987378,329.156089 192.89426,332.157186" id="Fill-60" fill="#A8C4E5"></path>
                        <path d="M192.89426,332.157186 L113.926232,378.690503 C104.204278,384.418599 91.4868673,377.893381 90.207761,366.520165 L68.2047098,170.873635 C67.5353233,164.916192 70.3508487,159.211404 75.4439663,156.210307 L154.411995,109.677922 C164.133948,103.948894 176.851359,110.474113 178.131398,121.847328 L200.133517,317.493859 C200.803836,323.452234 197.987378,329.156089 192.89426,332.157186" id="Fill-61" fill="#4265C2"></path>
                        <path d="M154.086718,395.462989 C156.704597,393.95172 160.664046,393.787633 162.931383,395.09566 L186.83538,408.897536 C189.102717,410.206496 188.818368,412.493445 186.200489,414.004715 C183.582609,415.515985 179.62316,415.680071 177.355823,414.37018 L153.451826,400.570168 C151.184489,399.260277 151.468839,396.974259 154.086718,395.462989" id="Fill-62" fill="#8CB2DE"></path>
                        <path d="M187.528167,317.79835 L105.272873,368.059964 L81.5935586,157.505841 L152.914919,115.479297 C158.074229,112.439043 164.823099,115.901632 165.501809,121.936457 L187.528167,317.79835 Z" id="Fill-63" fill="#FDFFFF"></path>
                        <path d="M209.984686,303.933917 L127.728459,354.19553 L104.050077,143.641407 L175.371437,101.614863 C180.530748,98.5746096 187.279618,102.037199 187.958327,108.072023 L209.984686,303.933917 Z" id="Fill-64" fill="#FDFFFF"></path>
                        <path d="M187.268244,102.099943 C186.589535,96.0651184 179.840664,92.6015971 174.682286,95.6418509 L153.448377,108.154346 C152.989689,108.321229 152.535662,108.517013 152.094687,108.776195 L87.2956501,146.960701 C83.3278103,149.297995 81.1042911,153.749762 81.6189169,158.326458 L82.328392,164.637245 L180.951025,107.882112 C183.02631,106.767073 186.438503,108.170195 188.086797,109.383127 L187.268244,102.099943 Z" id="Fill-65" fill="#FDFFFF"></path>
                        <polygon id="Stroke-66" stroke="#97CBFF" stroke-width="0.883" points="163.219835 172.957994 184.504088 159.665158 182.107162 134.488202 160.821977 147.781038"></polygon>
                        <polygon id="Stroke-67" stroke="#97CBFF" stroke-width="0.883" points="141.935022 186.250643 163.220208 172.957807 160.82235 147.780851 139.538097 161.073687"></polygon>
                        <polygon id="Stroke-68" stroke="#97CBFF" stroke-width="0.883" points="120.650676 199.542827 141.934929 186.250923 139.538003 161.073035 118.25375 174.365871"></polygon>
                        <polygon id="Stroke-69" stroke="#97CBFF" stroke-width="0.883" points="99.3663295 212.835476 120.650583 199.54264 118.253657 174.365684 96.9684714 187.65852"></polygon>
                        <polygon id="Stroke-70" stroke="#97CBFF" stroke-width="0.883" points="165.616947 198.134856 186.902132 184.842953 184.504274 159.665064 163.220021 172.957901"></polygon>
                        <polygon id="Stroke-71" stroke="#97CBFF" stroke-width="0.883" points="144.332694 211.427506 165.616947 198.13467 163.220021 172.957714 141.934836 186.25055"></polygon>
                        <polygon id="Stroke-72" stroke="#97CBFF" stroke-width="0.883" points="101.763535 238.012339 123.04872 224.720435 120.650862 199.542547 99.3666092 212.835383"></polygon>
                        <path d="M186.90176,184.842673 L189.298685,210.019629" id="Stroke-73" stroke="#97CBFF" stroke-width="0.883"></path>
                        <polygon id="Stroke-74" stroke="#97CBFF" stroke-width="0.883" points="146.729899 236.604369 168.015085 223.312465 165.617227 198.134577 144.332974 211.427413"></polygon>
                        <polygon id="Stroke-75" stroke="#97CBFF" stroke-width="0.883" points="125.445553 249.897018 146.729806 236.604182 144.33288 211.427226 123.048627 224.720062"></polygon>
                        <polygon id="Stroke-76" stroke="#97CBFF" stroke-width="0.883" points="104.161206 263.189668 125.44546 249.896832 123.048534 224.719876 101.763348 238.012712"></polygon>
                        <path d="M189.298965,210.019442 L191.695891,235.196398" id="Stroke-77" stroke="#97CBFF" stroke-width="0.883"></path>
                        <polygon id="Stroke-78" stroke="#97CBFF" stroke-width="0.883" points="170.411824 248.488955 191.696077 235.196119 189.299151 210.019163 168.014898 223.311999"></polygon>
                        <polygon id="Stroke-79" stroke="#97CBFF" stroke-width="0.883" points="149.127478 261.781604 170.411731 248.488768 168.014805 223.311812 146.72962 236.604648"></polygon>
                        <polygon id="Stroke-80" stroke="#97CBFF" stroke-width="0.883" points="127.842758 275.073881 149.127944 261.781977 146.730086 236.604089 125.445833 249.896925"></polygon>
                        <polygon id="Stroke-81" stroke="#97CBFF" stroke-width="0.883" points="106.558412 288.366531 127.842665 275.073695 125.445739 249.896739 104.161486 263.189575"></polygon>
                        <polyline id="Stroke-82" stroke="#1D3570" stroke-width="1.765" stroke-linecap="round" stroke-linejoin="round" points="113.604777 275.44438 118.253191 235.196678 140.700946 227.343855 144.454358 191.654203 161.207666 196.917077 178.973445 158.933017"></polyline>
                        <polyline id="Stroke-83" stroke="#1D3570" stroke-width="1.765" stroke-linecap="round" stroke-linejoin="round" points="174.06632 160.182029 179.784074 157.365529 180.691195 163.468412"></polyline>
                        <path d="M141.238506,286.630761 C150.535334,281.516124 157.893924,286.023829 157.673902,296.699679 C157.453881,307.375529 149.738223,320.176106 140.440463,325.291676 C131.143636,330.406313 123.785046,325.898608 124.005999,315.222758 C124.22602,304.546909 131.941678,291.745398 141.238506,286.630761 M141.434288,277.13428 C127.570156,284.762417 116.064726,303.85234 115.736559,319.772417 C115.407459,335.692495 126.379617,342.415362 140.244682,334.787225 C154.108813,327.16002 165.614243,308.070097 165.943343,292.15002 C166.272442,276.229942 155.299352,269.507075 141.434288,277.13428" id="Fill-84" fill="#2C4482"></path>
                        <path d="M141.434754,277.134653 C149.919554,272.466591 157.315436,273.18167 161.707469,278.081877 L154.73951,287.162549 C151.78414,283.970329 146.868158,283.533077 141.238972,286.631134 C133.542892,290.864741 126.93573,300.364951 124.761623,309.565891 L116.776532,311.703672 C119.928615,297.8673 129.856605,283.505108 141.434754,277.134653" id="Fill-85" fill="#FF5C97"></path>
                        <path d="M159.245283,314.712413 L153.071637,312.031098 C155.835886,307.121568 157.570884,301.679691 157.673436,296.699306 C157.766666,292.190668 156.504341,288.787747 154.319045,286.739468 L160.792889,277.159079 C164.143551,280.197469 166.083653,285.325158 165.943809,292.149647 C165.791845,299.475717 163.269992,307.470251 159.245283,314.712413" id="Fill-86" fill="#ADD5F7"></path>
                        <path d="M176.71077,271.54948 L190.97672,263.312546 C192.253029,262.576023 193.29813,260.579954 193.29813,258.878493 C193.29813,257.177032 192.253029,256.387368 190.97672,257.123891 L176.71077,265.360825 C175.43446,266.09828 174.390292,268.093417 174.390292,269.794878 C174.390292,271.497271 175.43446,272.286935 176.71077,271.54948" id="Fill-87" fill="#ADD5F7"></path>
                        <path d="M179.214443,288.737962 L193.481325,280.501028 C194.756702,279.764505 195.801803,277.769368 195.801803,276.066975 C195.801803,274.365514 194.756702,273.57585 193.481325,274.313305 L179.214443,282.550239 C177.938134,283.286762 176.893965,285.281899 176.893965,286.984292 C176.893965,288.685753 177.938134,289.475417 179.214443,288.737962" id="Fill-88" fill="#ADD5F7"></path>
                        <path d="M181.718116,305.92691 L195.984999,297.689976 C197.261308,296.953453 198.305476,294.957383 198.305476,293.255923 C198.305476,291.55353 197.261308,290.764798 195.984999,291.50132 L181.718116,299.738254 C180.441807,300.475709 179.397639,302.470847 179.397639,304.172308 C179.397639,305.873768 180.441807,306.663432 181.718116,305.92691" id="Fill-89" fill="#ADD5F7"></path>
                        <path d="M222.862918,243.521995 C222.604672,244.100025 221.919437,244.361071 221.341415,244.102822 L183.010181,226.945573 C182.43216,226.686392 182.171118,226.002078 182.429363,225.424048 C182.68854,224.846017 183.372843,224.584971 183.950865,224.84322 L222.282099,242.00047 C222.860121,242.259651 223.121163,242.943964 222.862918,243.521995" id="Fill-90" fill="#715154"></path>
                        <path d="M226.446839,240.866225 C225.550905,239.724148 224.010757,238.335943 222.900396,237.389651 C222.034296,236.652196 220.968684,236.198163 219.835016,236.094676 C217.64133,235.897027 214.040814,235.754384 213.179375,236.831199 C212.069014,238.219405 213.983012,239.423945 215.154904,240.166062 C217.486569,241.641904 220.833502,242.172387 223.468162,242.353255 C223.919392,242.384021 224.221455,242.190101 224.385539,241.903883 C224.552419,242.08475 224.713706,242.267482 224.859144,242.453944 C225.750416,243.589494 227.329721,241.990587 226.446839,240.866225" id="Fill-91" fill="#FFC2B0"></path>
                        <path d="M63.7635448,447.531135 C66.3814241,446.019865 70.3418055,445.855779 72.6082102,447.163806 L96.5122072,460.965681 C98.7795442,462.273708 98.4951947,464.56159 95.8773155,466.07286 C93.2594363,467.58413 89.2999872,467.748216 87.0326502,466.438325 L63.1286532,452.638313 C60.8613162,451.328422 61.1456656,449.042405 63.7635448,447.531135" id="Fill-92" fill="#8CB2DE"></path>
                        <path d="M559.428864,499.451695 L526.320337,519.723783 C520.957787,523.007369 516.813743,521.465333 517.10928,516.298487 L517.394562,511.335815 C517.691031,506.168969 522.320799,499.254979 527.68335,495.972325 L560.791877,475.700237 C566.154427,472.417584 570.299403,473.957755 570.002934,479.124602 L569.717652,484.088205 C569.421183,489.254119 564.791415,496.169042 559.428864,499.451695" id="Fill-93" fill="#D84177"></path>
                        <path d="M297.681216,388.007795 C284.809044,395.439216 263.874401,395.401923 250.92112,387.923887 C237.968771,380.444919 237.90351,368.357556 250.77475,360.926135 C263.646922,353.494715 284.582497,353.532007 297.534846,361.010975 C310.487195,368.489011 310.553388,380.576374 297.681216,388.007795" id="Fill-94" fill="#88BDEB"></path>
                        <path d="M249.123659,363.027556 L262.206529,356.734482 L269.032779,356.965694 C269.445785,365.997887 268.671982,364.755121 265.716612,366.437936 L254.613933,370.541952 C248.922283,371.954397 247.21339,371.928293 244.466854,369.985364 C243.038581,367.669513 245.28634,365.502831 249.123659,363.027556" id="Fill-95" fill="#2C4482"></path>
                        <path d="M286.574714,387.267077 L291.019888,373.440961 L295.888323,368.650767 C302.723897,374.576511 301.29003,374.281902 300.475206,377.585067 L295.805349,388.465092 C292.910579,393.567609 291.714447,394.787999 288.414129,395.440614 C285.752432,394.880297 285.728192,391.755204 286.574714,387.267077" id="Fill-96" fill="#2C4482"></path>
                        <path d="M288.175742,269.248266 C282.526045,286.608759 283.321291,305.900059 284.819486,323.853499 C285.518706,332.23867 286.533973,340.59121 287.553902,348.942818 C288.205575,354.281209 289.938708,364.654991 289.88277,370.048388 C289.800729,377.942234 301.230643,377.704495 301.312685,369.803192 C301.368622,364.410727 300.469892,354.282141 299.818219,348.942818 C298.837446,340.907262 297.859471,332.870774 297.164912,324.80352 C295.684431,307.612708 294.585257,289.15489 300.002813,272.508545 C302.451015,264.985758 290.611824,261.762772 288.175742,269.248266" id="Fill-97" fill="#4265C2"></path>
                        <path d="M261.371008,266.481458 C258.544295,276.754551 257.243746,287.412687 256.171609,297.990645 C255.524597,304.369491 254.502804,310.769779 255.137695,317.170068 C256.349677,329.391683 258.603961,341.800692 258.51819,354.10435 C258.463185,361.998195 270.728434,362.006586 270.783439,354.10435 C270.867346,341.98156 268.672728,329.742231 267.456085,317.702416 C266.847298,311.672253 267.66958,305.788462 268.260654,299.759231 C269.248885,289.659548 270.500022,279.547744 273.198079,269.741736 C275.294806,262.121057 263.46587,258.868238 261.371008,266.481458" id="Fill-98" fill="#4265C2"></path>
                        <path d="M270.337897,285.955584 C271.470633,287.225387 266.604995,281.050716 268.061237,281.930814 C271.093986,283.762798 288.120457,295.331798 291.664103,295.390533 C295.943329,295.461388 293.448512,291.324741 296.63509,288.465355 C299.657585,285.752341 300.368924,281.346257 300.663529,277.295383 C300.745571,276.176614 300.801508,275.006568 300.354008,273.977301 C299.87108,272.865059 298.871661,272.076327 297.904873,271.344466 C290.342111,265.6201 275.462712,251.449962 264.895169,255.980975 C252.683993,261.216813 264.918476,279.879738 270.337897,285.955584" id="Fill-99" fill="#4265C2"></path>
                        <path d="M185.430042,522.4161 L184.610556,522.264134 C183.298819,522.020802 182.432719,520.760322 182.676047,519.447634 L201.242666,419.33369 C201.485995,418.021001 202.746455,417.154888 204.058191,417.39822 L204.877677,417.551118 C206.189414,417.793518 207.055514,419.05493 206.813118,420.366686 L188.246499,520.481563 C188.002238,521.793319 186.741778,522.659432 185.430042,522.4161" id="Fill-100" fill="#2C4482"></path>
                        <path d="M216.851678,170.82618 L266.59418,142.106457 C269.817118,140.245572 272.454575,135.207384 272.454575,130.909447 L272.454575,106.492322 C272.454575,102.194386 269.817118,100.201113 266.59418,102.061066 L216.851678,130.780789 C213.627808,132.641674 210.991283,137.680795 210.991283,141.977798 L210.991283,166.395856 C210.991283,170.69286 213.627808,172.687065 216.851678,170.82618" id="Fill-101" fill="#2C4482"></path>
                        <path d="M218.877831,172.852363 L268.620333,144.133572 C271.844203,142.272687 274.480728,137.233567 274.480728,132.936563 L274.480728,108.518505 C274.480728,104.220569 271.844203,102.227296 268.620333,104.088181 L218.877831,132.806972 C215.654893,134.667857 213.017436,139.706978 213.017436,144.004914 L213.017436,168.42204 C213.017436,172.719976 215.654893,174.713249 218.877831,172.852363" id="Fill-102" fill="#FDFFFF"></path>
                        <path d="M239.876802,136.437283 L267.743045,120.34939 C268.449723,119.940107 269.02961,118.834391 269.02961,117.890896 C269.02961,116.947401 268.449723,116.510149 267.743045,116.9185 L239.876802,133.007325 C239.169191,133.415676 238.590237,134.521392 238.590237,135.464887 C238.590237,136.408382 239.169191,136.845634 239.876802,136.437283" id="Fill-103" fill="#4367C7"></path>
                        <path d="M239.876802,146.261097 L267.743045,130.172272 C268.449723,129.763921 269.02961,128.658205 269.02961,127.71471 C269.02961,126.771215 268.449723,126.333031 267.743045,126.742314 L239.876802,142.830207 C239.169191,143.23949 238.590237,144.345206 238.590237,145.288701 C238.590237,146.232196 239.169191,146.669448 239.876802,146.261097" id="Fill-104" fill="#4367C7"></path>
                        <path d="M221.29508,147.166088 L231.85703,141.067867 C232.56464,140.659516 233.142662,139.552867 233.142662,138.610305 C233.142662,137.66681 232.56464,137.228626 231.85703,137.636976 L221.29508,143.735197 C220.58747,144.143548 220.008516,145.250197 220.008516,146.193692 C220.008516,147.136254 220.58747,147.574439 221.29508,147.166088" id="Fill-105" fill="#4367C7"></path>
                        <path d="M270.40987,141.60096 L270.976704,154.664448 C271.007469,155.721685 269.421639,157.015727 268.508924,156.679164 L257.272926,150.7413 L270.40987,141.60096 Z" id="Fill-106" fill="#FDFFFF"></path>
                        <path d="M530.497756,484.277091 L530.486569,482.754633 L528.526888,483.513531 L528.107356,482.545796 L479.049157,454.221371 C478.458084,453.880147 477.416712,453.923033 476.734273,454.317399 L455.613172,466.511045 L455.613172,466.171685 L451.706863,467.740758 L451.706863,469.359243 L451.7339,469.359243 C451.783311,469.515871 451.905442,469.661311 452.105885,469.776917 L503.155462,499.251809 C503.746536,499.593033 504.787907,499.550147 505.470346,499.155781 L529.933719,485.032259 C530.305704,484.816896 530.495892,484.540001 530.496824,484.278023 L530.497756,484.277091 Z" id="Fill-107" fill="#A8C4E5"></path>
                        <path d="M503.12712,497.641714 L452.076611,468.167754 C451.485537,467.82653 451.561053,467.22426 452.242559,466.830826 L476.704999,452.707304 C477.387438,452.312938 478.429742,452.270052 479.019883,452.611277 L530.070393,482.085236 C530.661467,482.426461 530.586883,483.027799 529.904445,483.422165 L505.442004,497.544754 C504.759566,497.93912 503.718194,497.982006 503.12712,497.641714" id="Fill-108" fill="#E1EAF4"></path>
                        <path d="M506.615015,478.657795 L494.260266,471.524713 C494.116693,471.441738 494.135339,471.296298 494.300355,471.201202 L500.220417,467.782432 C500.385433,467.687337 500.638084,467.677081 500.780725,467.760057 L513.135474,474.893139 C513.279047,474.975182 513.260401,475.120622 513.095385,475.21665 L507.175324,478.634488 C507.010308,478.729583 506.757656,478.739838 506.615015,478.657795" id="Fill-109" fill="#A8C4E5"></path>
                        <path d="M291.955444,208.865433 L270.213435,200.585612 L272.843434,191.516128 C278.401766,191.132017 281.259245,192.149165 285.955206,195.042114 L291.955444,208.865433 Z" id="Fill-110" fill="#424268"></path>
                        <path d="M261.439718,198.159842 C259.262813,201.053724 259.531313,202.760778 259.656241,206.554336 C259.778371,210.263987 262.3515,213.349923 265.988376,214.169422 L295.736919,221.895451 C295.736919,221.895451 305.203424,208.376065 297.86348,204.513516 C293.909624,202.433538 287.775135,199.095879 282.956112,196.458382 C275.878142,192.585578 266.468507,191.4752 261.439718,198.159842" id="Fill-111" fill="#D0E7F4"></path>
                        <path d="M259.825452,264.315895 C260.932084,265.666808 262.130081,226.167749 259.82452,201.331085 L301.690077,218.792267 C301.577269,237.602497 294.222409,257.20612 296.627725,279.998234 L259.825452,264.315895 Z" id="Fill-112" fill="#D0E7F4"></path>
                        <path d="M274.825024,199.863354 L272.435556,184.960423 L283.022677,188.218837 L284.959983,200.387311 C285.461556,202.376854 277.01498,207.502679 274.825024,199.863354" id="Fill-113" fill="#FFC2B0"></path>
                        <path d="M292.989264,199.037982 C292.989264,199.037982 280.880641,213.211849 278.704668,245.767084 C277.80687,259.197901 276.227565,277.299578 279.14844,278.711091 C283.720406,280.919727 289.460535,284.696503 295.292029,283.504082 C297.660985,283.019283 302.492129,280.847939 302.584426,278.50039 C300.745011,258.834302 304.242043,237.783737 302.359743,216.158872 L301.367783,207.756919 C301.219549,206.887077 302.76902,206.135637 302.134128,205.416828 L292.989264,199.037982 Z" id="Fill-114" fill="#3856A6"></path>
                        <path d="M272.005862,195.069803 C272.005862,195.069803 263.817531,216.437352 268.404414,269.170512 C268.560107,270.953083 266.667552,272.252719 264.988492,271.518994 C263.197556,270.738653 261.223892,269.621749 259.749936,268.734192 C258.400908,267.922153 257.608459,266.480806 257.671855,264.935973 C258.110032,254.277837 258.242418,211.598678 258.242418,211.598678 C258.242418,211.598678 256.571749,192.991691 271.465132,192.835995 C289.156327,192.652331 272.005862,195.069803 272.005862,195.069803" id="Fill-115" fill="#3856A6"></path>
                        <path d="M274.554659,196.630765 C274.554659,196.630765 279.423093,193.910293 279.445469,193.867407 C279.445469,193.867407 277.573424,198.312647 275.136409,199.492948 L274.554659,196.630765 Z" id="Fill-116" fill="#EA8A6C"></path>
                        <path d="M276.531679,208.815834 C278.657308,209.185028 280.779207,207.773514 281.248151,205.67862 L282.007037,202.288751 C278.848428,203.607966 276.286486,202.81364 274.411645,200.256321 L273.51944,204.335165 C273.051429,206.43006 274.406051,208.44664 276.531679,208.815834" id="Fill-117" fill="#FF5C97"></path>
                        <path d="M278.570138,207.155208 L276.043624,240.322969 C276.015655,240.689366 275.856233,241.040846 275.594259,241.312147 L272.863572,244.1417 C272.137316,244.895004 270.913215,244.790585 270.402318,243.930998 L268.921836,241.443603 C268.734445,241.126618 268.672914,240.748101 268.749362,240.377975 L275.789108,206.555735 L278.570138,207.155208 Z" id="Fill-118" fill="#FF5C97"></path>
                        <path d="M278.612465,201.258179 C278.612465,201.258179 274.435791,201.316914 273.828868,194.224853 L271.056228,193.894817 C270.664665,194.199681 269.866622,194.01322 269.434038,196.397129 C269.176725,197.815168 269.241054,199.25838 269.56083,200.640059 L270.494056,204.67322 C270.702889,205.577558 271.830964,205.970992 272.62621,205.417201 L278.612465,201.258179 Z" id="Fill-119" fill="#FFFFFF"></path>
                        <path d="M278.721729,201.274121 C278.721729,201.274121 277.540514,201.198604 276.786289,200.629897 L270.492377,204.718996 L270.551112,204.967922 C270.735706,205.740805 271.695968,206.081097 272.384,205.615876 L278.721729,201.274121 Z" id="Fill-120" fill="#FCFEFF"></path>
                        <path d="M276.471547,200.966833 C276.471547,200.966833 281.190815,202.481832 286.05925,195.867112 L289.062166,199.573034 C289.322276,200.14547 289.353041,200.212596 288.861723,200.730959 L282.44941,207.470608 C281.697982,208.262137 280.344292,208.196875 279.89213,207.348476 L276.471547,200.966833 Z" id="Fill-121" fill="#FFFFFF"></path>
                        <path d="M276.353705,200.939516 C276.353705,200.939516 277.641202,201.115722 278.656469,201.080295 L282.422001,207.515079 L282.2141,207.733239 C281.56802,208.407297 280.411977,208.356952 280.012023,207.636279 L276.353705,200.939516 Z" id="Fill-122" fill="#FCFEFF"></path>
                        <path d="M264.675894,194.661453 C263.346444,201.958621 260.591517,210.371761 261.815618,215.353079 L265.321973,214.620285 L263.325001,221.135248 L267.066293,245.860035 C267.066293,245.860035 265.789984,219.780606 272.845579,191.805796 C269.458558,191.984799 268.415322,192.724118 264.675894,194.661453" id="Fill-123" fill="#4265C2"></path>
                        <path d="M275.861547,196.661718 L272.782183,196.935816 C268.039607,197.358151 263.970148,193.922599 263.738939,189.30022 L262.976323,174.039284 C262.745114,169.416905 266.436995,165.289581 271.179571,164.867245 L274.258003,164.593147 C279.001511,164.170812 283.070038,167.606364 283.301247,172.228743 L284.208368,183.3521 C284.439577,187.973547 280.604122,196.239383 275.861547,196.661718" id="Fill-124" fill="#FFC2B0"></path>
                        <path d="M275.25882,175.932427 C272.057325,177.595663 270.098577,177.590069 266.503654,176.446128 C262.60294,175.205227 261.856173,170.383334 264.85536,167.448431 C266.47755,165.861644 266.56705,164.993666 270.05103,163.406879 C279.929608,158.909429 291.73244,163.649279 292.28529,174.704578 C292.28529,174.704578 292.722535,189.245773 283.700734,191.995147 L283.019228,187.392347 C283.019228,187.392347 285.177487,185.989224 283.066775,184.08825 C282.486889,183.566158 281.645028,182.983466 280.437708,182.345768 C279.130633,181.654928 278.82018,179.887274 278.90968,178.039441 C279.000112,176.169233 276.977036,175.039276 275.25882,175.932427" id="Fill-125" fill="#715154"></path>
                        <path d="M285.808183,187.720146 C284.443306,188.920025 282.855611,188.621687 282.26174,187.054479 C281.667869,185.48727 282.292505,183.244139 283.657383,182.04426 C285.02226,180.84438 286.609955,181.142719 287.203826,182.709927 C287.797697,184.277135 287.17306,186.520267 285.808183,187.720146" id="Fill-126" fill="#FFC2B0"></path>
                        <path d="M263.646642,183.387248 C263.877851,188.009627 267.94731,191.445179 272.689886,191.022844 L275.76925,190.748746 C278.714364,190.485835 280.199507,186.902979 281.450645,182.918298 C282.038922,183.272574 282.833235,183.054415 283.181913,182.440956 L283.37583,182.099732 L283.163267,185.779549 C283.394476,190.401928 280.614378,196.89638 275.871802,197.318715 L272.79337,197.592813 C268.049863,198.015148 263.980403,194.579596 263.749194,189.957217 L262.986578,174.696281 C262.953948,174.052989 263.005224,173.420884 263.118032,172.804629 L263.646642,183.387248 Z" id="Fill-127" fill="#AF8080"></path>
                        <path d="M295.401946,200.324007 L289.745723,219.182717 L285.04883,218.717496 L286.331666,225.94008 L278.359627,247.143542 C278.359627,247.143542 278.693388,230.168093 284.032631,211.5667 C285.440393,206.659967 287.774855,200.208401 286.680343,195.771551 C289.96388,197.067458 292.445644,197.73499 295.401946,200.324007" id="Fill-128" fill="#4265C2"></path>
                        <path d="M299.036398,272.054325 C299.40745,272.225869 307.50162,267.022663 303.551493,262.845926 C299.601367,258.670122 294.178218,265.670817 294.178218,265.670817 C294.178218,265.670817 295.7482,270.533731 299.036398,272.054325" id="Fill-129" fill="#FFC2B0"></path>
                        <path d="M299.046933,263.559328 C298.218124,262.637276 298.329067,261.231357 299.297719,260.338206 C303.301919,256.645338 305.435938,251.706906 305.825636,245.688863 C306.671226,232.630036 303.419388,222.588156 296.31811,212.340235 C292.771667,207.220936 300.493852,202.316068 304.027243,207.415788 C312.671465,219.891923 317.895104,232.037089 315.880418,247.94225 C315.115005,253.981736 313.148799,259.733139 309.005688,264.655721 C308.119077,265.708296 307.151357,266.675098 306.116512,267.566384 C305.046239,268.490301 303.413794,268.42131 302.525318,267.432132 L299.046933,263.559328 Z" id="Fill-130" fill="#4367C7"></path>
                        <path d="M224.686483,240.191514 C225.019312,239.035453 226.295621,238.438776 227.391066,238.934764 C233.195523,241.56387 249.466836,247.872793 252.436189,237.542829 C258.388881,216.828828 259.158023,202.654029 259.158023,202.654029 L262.219674,239.400917 C258.55483,248.333353 253.390858,255.350829 246.360435,253.902956 C233.627175,251.279443 227.015351,248.525408 224.346196,247.211787 C223.487554,246.789452 223.066158,245.815191 223.330929,244.895936 L224.686483,240.191514 Z" id="Fill-131" fill="#3856A6"></path>
                        <path d="M501.825639,464.471996 C501.617738,463.128541 500.565179,461.537092 499.474396,460.917108 L448.790277,432.111613 C448.339047,431.85616 447.953078,431.808613 447.669661,431.933542 L447.666864,431.931677 L447.658473,431.938203 C447.558718,431.982954 447.47015,432.051013 447.397431,432.139582 L445.719304,433.901642 L447.245467,433.765526 L452.061694,464.912977 C452.269595,466.255499 453.322154,467.84788 454.412937,468.467864 L502.3384,495.704287 L503.885075,497.44304 L504.078059,497.871901 C505.047644,498.08167 507.368122,496.432419 507.368122,496.432419 L501.825639,464.471996 Z" id="Fill-132" fill="#FFFFFF"></path>
                        <path d="M378.25773,379.433552 L345.422365,404.799766 C340.059814,408.08242 336.034173,404.824006 336.038834,399.182616 L335.413265,389.996593 C335.418859,384.35427 339.810892,377.051507 345.173443,373.767921 L378.28197,353.496766 C383.64452,350.214112 388.027231,352.143988 388.022569,357.785379 L388.016975,363.205813 C388.011382,368.848136 383.619348,376.150898 378.25773,379.433552" id="Fill-133" fill="#8E3361"></path>
                        <path d="M439.544539,465.484388 C440.606421,465.326828 441.340136,464.338582 441.182578,463.275752 L433.279529,409.994396 C433.121972,408.932498 432.132809,408.199704 431.070927,408.357264 C430.008112,408.514824 429.274398,409.50307 429.432888,410.5659 L437.335937,463.846324 C437.493494,464.909154 438.481725,465.641948 439.544539,465.484388" id="Fill-134" fill="#283D75"></path>
                        <path d="M378.379674,378.28178 L394.967967,334.400877 C397.697721,327.182022 405.285655,324.026162 411.403363,327.564268 L435.867668,341.714827 C440.27555,344.264687 442.741466,349.679527 442.032923,355.25286 L435.074287,404.728538 L378.379674,378.28178 Z" id="Fill-135" fill="#D84177"></path>
                        <path d="M389.737895,430.24243 L342.754048,403.11602 C338.400239,400.602519 340.162273,395.088855 346.670612,390.862706 L363.558171,379.896909 C370.066509,375.671693 378.95406,374.270435 383.307869,376.784867 L430.291716,403.911278 C434.644593,406.424778 432.883491,411.939375 426.375152,416.164591 L409.486662,427.130388 C402.979255,431.355605 394.091704,432.756862 389.737895,430.24243" id="Fill-136" fill="#8E3361"></path>
                        <path d="M424.78494,420.091749 L391.676412,440.363837 C386.313862,443.647423 382.168887,442.105386 382.465356,436.93854 L382.750638,431.975869 C383.046175,426.809022 387.676875,419.895964 393.039425,416.612378 L426.147953,396.340291 C431.509571,393.057637 435.654546,394.597808 435.358077,399.764655 L435.073727,404.728258 C434.777258,409.895105 430.14749,416.809095 424.78494,420.091749" id="Fill-137" fill="#D84177"></path>
                        <path d="M389.948687,310.861146 C388.235132,313.899535 386.254009,321.279679 387.84823,324.922203 C388.104611,325.508624 393.125942,339.297447 393.696505,338.956223 C394.266136,338.614066 401.176293,336.50612 401.66668,336.05768 C403.127583,334.722616 413.36323,343.775319 414.849305,342.470089 C416.863991,340.701502 417.711445,315.080768 417.797216,312.401317 C417.90443,308.985343 400.79685,309.144768 398.6908,306.452265 C398.278726,305.925511 397.794866,305.450035 397.453647,304.874801 L397.453647,304.873869 C396.958599,304.038521 396.714338,302.473178 395.488373,302.665233 C394.504804,302.819996 393.795328,304.343386 393.287229,305.039819 C391.820731,307.048009 391.481377,308.142538 389.948687,310.861146" id="Fill-138" fill="#715154"></path>
                        <path d="M382.547677,338.121995 C381.642421,343.892044 380.551638,349.597764 377.80417,354.802835 C375.469708,359.224768 372.725969,365.079657 368.795421,368.203819 C365.004717,371.217036 360.091532,372.481244 355.970796,374.957452 C350.66698,378.14501 346.839917,382.644325 343.953537,388.075014 C341.427955,392.826052 348.646701,397.057794 351.176944,392.297434 C354.593799,385.870108 359.142457,382.438285 365.604181,379.45024 C370.097834,377.372128 374.34443,375.197055 377.505836,371.25526 C384.671441,362.320028 388.859302,351.540692 390.61481,340.34648 C391.440822,335.078944 383.381148,332.81064 382.547677,338.121995" id="Fill-139" fill="#FFC2B0"></path>
                        <path d="M383.094374,336.066723 C381.348189,341.154324 380.117562,346.458219 378.233398,351.490814 C376.798598,355.325393 374.210552,358.38709 371.541397,361.438531 C366.833317,366.820741 374.691616,374.740691 379.42953,369.32585 C383.012332,365.230225 386.373249,361.121547 388.394461,356.024624 C390.580688,350.510959 391.925055,344.642085 393.85024,339.032393 C396.185635,332.227482 385.41392,329.305631 383.094374,336.066723" id="Fill-140" fill="#97CBF2"></path>
                        <path d="M381.437409,380.637627 C362.312347,392.765079 350.639104,403.853941 351.365361,409.061809 C351.365361,409.061809 360.892465,403.780288 368.366659,408.120178 C379.444167,414.553098 369.039775,420.511473 369.039775,420.511473 C369.039775,420.511473 409.629955,422.915894 411.764906,400.647736 C413.117664,386.535402 411.764906,387.299894 411.764906,387.299894 C411.764906,387.299894 391.834343,394.212952 381.437409,380.637627" id="Fill-141" fill="#4264BF"></path>
                        <path d="M417.933424,338.699279 C413.518084,333.788817 405.010909,331.1392 398.613513,330.813825 C396.819781,330.723391 396.824442,333.512854 398.613513,333.603288 C404.294907,333.892303 412.054383,336.326557 415.961624,340.671109 C417.164282,342.008037 419.131421,340.030614 417.933424,338.699279" id="Fill-142" fill="#D0E7F4"></path>
                        <path d="M386.997513,340.786529 C386.997513,340.786529 379.703251,350.914182 380.102272,357.299554 C380.355856,361.363481 383.005433,366.068835 383.356908,367.385253 C386.228371,378.158995 384.122321,381.250526 384.328357,384.197549 C384.328357,384.197549 387.849629,390.185758 411.441307,386.311089 L423.629176,356.27961 L386.997513,340.786529 Z" id="Fill-143" fill="#DBEFFF"></path>
                        <path d="M421.40631,362.890507 C422.351655,362.383332 422.663973,360.899099 422.663973,360.899099 C423.609318,355.474935 426.754875,353.166543 421.351304,343.477074 C420.483339,341.919189 407.875006,334.435559 398.208991,332.10852 C393.524218,330.980428 388.692142,333.346624 386.527357,337.652018 C385.261303,340.17018 383.885238,345.213962 383.885238,345.215827 C382.843867,355.217618 388.043266,342.306096 388.429235,347.88409 C388.413386,347.748905 388.387282,347.610924 388.375162,347.476672 C388.375162,347.476672 389.048278,356.900433 389.548919,364.194804 C389.856576,368.745396 390.071936,372.037373 390.083123,372.497932 C390.083123,372.518443 390.084056,372.548277 390.082191,372.553871 L406.253749,386.884365 L416.095035,371.30085 L421.40631,362.890507 Z" id="Fill-144" fill="#DBEFFF"></path>
                        <path d="M400.712851,332.316984 C399.489682,332.061532 398.240409,332.536076 397.447028,333.501014 C395.241222,336.182329 391.671471,341.978483 396.842902,346.879622 C403.829507,353.499936 417.134262,340.367456 417.134262,340.367456 C411.483634,336.359468 405.974713,333.417106 400.712851,332.316984" id="Fill-145" fill="#FFC2B0"></path>
                        <path d="M401.4571,337.960892 L400.652531,321.279119 L409.916728,326.485123 L410.560943,340.104266 C410.833173,342.359517 402.740868,346.662115 401.4571,337.960892" id="Fill-146" fill="#FFC2B0"></path>
                        <path d="M401.385687,333.72225 C401.385687,333.72225 406.310059,332.370405 406.336163,332.331248 C406.336163,332.331248 404.140613,335.254031 401.667239,336.05768 L401.385687,333.72225 Z" id="Fill-147" fill="#EA8A6C"></path>
                        <path d="M418.897602,359.886054 C417.960647,361.724563 416.667557,363.595704 415.136731,365.454724 C411.199657,370.23746 404.77336,372.120721 398.842111,370.33442 C390.132628,367.710908 381.43713,362.714674 381.43713,362.714674 C381.43713,362.714674 384.554718,375.213184 382.809465,382.292192 C381.999303,385.573914 384.041025,383.081857 384.041025,383.081857 C384.046618,386.262889 388.213969,386.472658 388.213969,386.472658 C399.193586,390.589727 411.441121,386.311369 411.441121,386.311369 L419.905411,365.531174 L418.897602,359.886054 Z" id="Fill-148" fill="#DBEFFF"></path>
                        <path d="M380.217877,380.277943 C379.953106,380.969715 380.094814,381.745394 380.586133,382.299185 C382.358422,384.297119 387.264149,388.763803 396.150767,389.435996 C403.758279,390.01123 408.426271,389.185206 410.715983,388.558695 C411.703282,388.288326 412.329783,387.325253 412.158241,386.315564 L412.053824,385.697444 C411.865501,384.587067 410.791499,383.854273 409.690461,384.094808 C405.440136,385.021522 395.420782,386.687555 389.197725,383.490673 C386.327194,382.015763 384.55304,380.685361 383.458528,379.584306 C382.447922,378.568091 380.730638,378.938217 380.217877,380.277943" id="Fill-149" fill="#283D75"></path>
                        <path d="M396.573096,331.650477 C394.977942,334.291704 394.193884,337.834471 393.540346,340.81226 C392.892402,343.758351 393.215908,345.492442 395.873876,347.3785 C403.292133,352.644171 411.973647,346.175824 417.601901,341.318503 C418.962116,340.143796 416.982858,338.178492 415.629168,339.345741 C411.555047,342.863336 404.430463,348.633385 398.772376,345.784254 C395.007776,343.887942 396.119069,341.649472 397.057888,338.437674 C397.573446,336.675613 398.023744,334.642251 398.981209,333.058261 C399.911638,331.51809 397.50166,330.114967 396.573096,331.650477" id="Fill-150" fill="#FFFFFF"></path>
                        <path d="M399.779625,333.306628 L396.757131,332.420004 C392.101258,331.053241 389.409728,326.125998 390.775538,321.470056 L395.287837,306.09631 C396.653646,301.4413 401.580815,298.749729 406.236688,300.115559 L409.259182,301.003116 C413.915054,302.369878 416.606585,307.297122 415.239843,311.953064 L410.729408,327.325877 C409.362667,331.981819 404.435497,334.67339 399.779625,333.306628" id="Fill-151" fill="#FFC2B0"></path>
                        <path d="M416.573208,357.615326 C417.758153,365.023439 419.577989,372.347644 420.548507,379.786524 C421.466815,386.824511 423.228849,394.250338 416.950787,399.10859 C407.689387,406.274303 396.076743,408.675927 393.478442,421.83824 C392.439867,427.096452 400.501406,429.347042 401.544643,424.061793 C404.14947,410.874307 420.755476,410.699033 427.206012,400.262787 C431.151477,393.879279 429.715745,386.051628 428.812353,379.012709 C427.794289,371.079707 425.902666,363.286551 424.640341,355.390841 C423.792887,350.08881 415.729483,352.3394 416.573208,357.615326" id="Fill-152" fill="#FFC2B0"></path>
                        <path d="M413.069371,351.657324 C418.147572,364.476548 420.245232,376.893015 420.06996,390.659463 C419.979528,397.840093 431.133484,397.843822 431.224848,390.659463 C431.411307,375.980286 429.243725,362.370466 423.82617,348.691654 C421.212952,342.096513 410.420726,344.970816 413.069371,351.657324" id="Fill-153" fill="#DBEFFF"></path>
                        <path d="M407.367746,312.941962 C405.087357,307.951322 397.63274,311.280591 394.626095,309.133487 C391.363069,306.802719 393.552093,303.397001 396.783421,301.024279 C398.518419,299.750747 400.544292,298.821237 404.219392,298.417548 C414.506314,297.288524 422.890427,303.676693 420.514012,314.370257 C420.514012,314.370257 420.775986,330.522479 411.763508,330.486119 L411.434408,324.92211 C411.434408,324.92211 414.864315,322.697625 410.487199,318.230941 C409.465405,317.188621 409.414129,317.151329 409.979099,315.41817 C410.550595,313.662635 408.135023,314.620115 407.367746,312.941962" id="Fill-154" fill="#715154"></path>
                        <path d="M407.004431,312.290093 C407.004431,312.290093 413.217233,326.971134 410.313139,334.782936 C407.913417,341.240096 399.615075,343.608156 395.748856,353.304151 C394.944287,355.321664 397.358926,357.119152 399.078074,355.790614 C401.23913,354.120852 403.956765,352.384896 406.968072,351.293165 C414.326662,348.625834 417.529089,344.227208 417.797589,340.739447 C418.065157,337.251686 420.840594,312.363745 420.840594,312.363745 L406.833821,307.231394 L407.004431,312.290093 Z" id="Fill-155" fill="#715154"></path>
                        <path d="M390.191269,316.942958 C390.191269,316.942958 391.586912,312.107081 404.88421,308.741452 C418.180575,305.375823 405.486471,308.58296 405.486471,308.58296 L394.600084,302.991913 C394.600084,302.991913 388.695871,306.999902 390.191269,316.942958" id="Fill-156" fill="#715154"></path>
                        <path d="M412.993762,328.119737 C411.336145,328.912198 409.867783,328.122534 409.714887,326.356744 C409.561991,324.590022 410.78143,322.51657 412.439048,321.723177 C414.096665,320.930716 415.564094,321.72038 415.71699,323.48617 C415.870819,325.252892 414.651379,327.327276 412.993762,328.119737" id="Fill-157" fill="#FFC2B0"></path>
                        <polygon id="Fill-158" fill="#D7E8F7" points="186.607994 421.062747 204.736435 421.062747 204.736435 410.534202 186.607994 410.534202"></polygon>
                        <polygon id="Fill-159" fill="#D7E8F7" points="516.208126 488.379056 534.336567 488.379056 534.336567 477.850511 516.208126 477.850511"></polygon>
                        <path d="M412.81672,553.891537 L188.92092,424.624347 C185.411769,422.597511 185.850879,419.05754 189.904489,416.717449 L294.378195,356.398106 C298.430873,354.058947 304.561633,353.804427 308.071717,355.831263 L531.967516,485.098453 C535.476668,487.125289 535.036626,490.66526 530.983947,493.004418 L426.510242,553.324694 C422.457563,555.663853 416.326803,555.918373 412.81672,553.891537" id="Fill-160" fill="#D7E8F7"></path>
                        <path d="M412.81672,543.792692 L188.92092,414.525502 C185.411769,412.498666 185.850879,408.959628 189.904489,406.619537 L294.378195,346.300193 C298.430873,343.960102 304.561633,343.706515 308.071717,345.732418 L531.967516,475.000541 C535.476668,477.027377 535.036626,480.566415 530.983947,482.905573 L426.510242,543.225849 C422.457563,545.565008 416.326803,545.819528 412.81672,543.792692" id="Fill-161" fill="#FDFFFF"></path>
                        <path d="M588.673689,613.345233 L589.251711,613.270649 C590.98298,613.04876 592.206148,611.463837 591.98333,609.733475 L579.56332,513.081188 C579.340502,511.350826 577.756536,510.126706 576.0262,510.349528 L575.447246,510.42318 C573.71691,510.646001 572.493741,512.229991 572.715627,513.961286 L585.136569,610.612641 C585.358455,612.344868 586.942421,613.567122 588.673689,613.345233" id="Fill-162" fill="#4265C2"></path>
                        <path d="M462.965702,688.18377 C461.084334,688.021548 459.691488,686.365771 459.853707,684.484375 L473.282458,528.558792 C473.444677,526.678329 475.101362,525.28453 476.981797,525.446751 C478.863165,525.608972 480.256011,527.26475 480.094724,529.146146 L466.665041,685.070796 C466.502822,686.952192 464.847069,688.345991 462.965702,688.18377" id="Fill-163" fill="#4265C2"></path>
                        <polygon id="Fill-164" fill="#2C4482" points="473.307443 606.815447 466.803766 602.365545 468.662759 583.636425 475.589697 584.717902"></polygon>
                        <polygon id="Fill-165" fill="#D7E8F7" points="250.985635 458.091192 269.113143 458.091192 269.113143 447.562647 250.985635 447.562647"></polygon>
                        <polygon id="Fill-166" fill="#D7E8F7" points="580.585766 525.407501 598.713275 525.407501 598.713275 514.878956 580.585766 514.878956"></polygon>
                        <path d="M477.193148,590.920728 L253.297349,461.653538 C249.788197,459.626702 250.22824,456.086731 254.280918,453.74664 L358.754623,393.427297 C362.807302,391.087206 368.938062,390.833618 372.448145,392.860454 L596.343945,522.127644 C599.853096,524.15448 599.413054,527.69445 595.360376,530.033609 L490.88667,590.352953 C486.833992,592.692111 480.703232,592.947564 477.193148,590.920728" id="Fill-167" fill="#D7E8F7"></path>
                        <path d="M477.192682,580.821883 L250.927926,450.491863 C247.417842,448.465027 250.227773,445.987887 254.280452,443.647795 L358.754157,383.329384 C362.807768,380.989293 368.938528,380.734773 372.447679,382.761609 L596.343479,512.028799 C599.853563,514.055635 599.41352,517.595606 595.360842,519.934764 L490.886204,580.25504 C486.833526,582.594199 480.702766,582.848719 477.192682,580.821883" id="Fill-168" fill="#FDFFFF"></path>
                        <polygon id="Fill-169" fill="#A8C4E5" points="517.094643 492.364669 486.303797 509.887383 434.290228 480.820841 465.529508 462.57186"></polygon>
                        <path d="M530.293398,484.52294 L530.28221,483.000482 L528.321597,483.75938 L527.902066,482.791646 L478.843866,454.46722 C478.253725,454.125996 477.211421,454.168882 476.529915,454.563248 L455.408813,466.756894 L455.408813,466.417534 L451.502505,467.986607 L451.502505,469.605092 L451.529541,469.605092 C451.578953,469.76172 451.701083,469.90716 451.901526,470.022766 L502.951103,499.497658 C503.542177,499.838883 504.583549,499.795997 505.265987,499.401631 L529.728428,485.278109 C530.100413,485.062746 530.290601,484.785851 530.291533,484.523872 L530.293398,484.52294 Z" id="Fill-170" fill="#A8C4E5"></path>
                        <path d="M502.922295,497.887564 L451.871786,468.413604 C451.280712,468.072379 451.356228,467.470109 452.037734,467.076675 L476.501107,452.953154 C477.182613,452.558788 478.224917,452.515902 478.815991,452.857126 L529.865568,482.331086 C530.456642,482.67231 530.382059,483.273648 529.69962,483.668014 L505.237179,497.790604 C504.554741,498.18497 503.513369,498.227856 502.922295,497.887564" id="Fill-171" fill="#E1EAF4"></path>
                        <path d="M506.410191,478.903645 L494.055442,471.770562 C493.911868,471.687587 493.930514,471.542147 494.09553,471.447052 L500.015592,468.028281 C500.180608,467.933186 500.433259,467.922931 500.5759,468.005906 L512.931581,475.138988 C513.074222,475.221031 513.055576,475.366471 512.890561,475.462499 L506.970499,478.880337 C506.805483,478.975432 506.552832,478.985688 506.410191,478.903645" id="Fill-172" fill="#A8C4E5"></path>
                        <path d="M501.620814,464.717752 C501.412913,463.374297 500.360354,461.781916 499.269571,461.162864 L448.585452,432.357369 C448.134223,432.101917 447.748253,432.054369 447.464836,432.179298 L447.462039,432.177433 L447.454581,432.18396 C447.353893,432.22871 447.265325,432.296769 447.192606,432.385338 L445.514479,434.148331 L447.040643,434.011282 L451.856869,465.158733 C452.064771,466.501255 453.11733,468.093636 454.208113,468.71362 L502.133575,495.950043 L503.68025,497.688796 L503.873235,498.116725 C504.842819,498.327426 507.163297,496.679107 507.163297,496.679107 L501.620814,464.717752 Z" id="Fill-173" fill="#FFFFFF"></path>
                        <path d="M503.298755,499.152145 L452.615569,470.347582 C451.524786,469.727598 450.471295,468.136149 450.263394,466.792695 L445.394026,435.303087 C445.186125,433.9587 445.902126,433.372278 446.992909,433.992263 L497.676095,462.796826 C498.766878,463.41681 499.82037,465.008259 500.027339,466.351713 L504.897638,497.842254 C505.10554,499.185708 504.389538,499.772129 503.298755,499.152145" id="Fill-174" fill="#283D75"></path>
                        <path d="M477.533249,466.414924 C477.791494,468.088415 476.274653,468.46227 474.144363,467.251203 C472.013141,466.041069 470.076768,463.703774 469.81759,462.030283 C469.559345,460.357724 471.076186,459.982936 473.206476,461.193071 C475.337698,462.404138 477.274071,464.742365 477.533249,466.414924" id="Fill-175" fill="#FFFFFF"></path>
                        <path d="M550.931758,455.580489 C550.955065,459.724594 550.775133,464.877456 547.089778,467.582079 C544.144664,469.743167 539.917646,470.105835 536.414089,470.471299 C526.066567,471.550911 516.085436,472.346169 506.640374,477.143822 C502.32945,479.332879 506.12668,485.816143 510.43201,483.629883 C521.048965,478.23835 532.49939,479.451282 543.755897,476.909813 C554.5388,474.475559 558.502911,466.043772 558.443244,455.580489 C558.416208,450.747408 550.904721,450.738085 550.931758,455.580489" id="Fill-176" fill="#FFC2B0"></path>
                        <path d="M546.454606,430.686768 L548.031114,454.494164 C550.055123,461.16389 565.172257,457.07852 564.016213,451.476286 L560.521978,428.746636 C559.766821,425.166577 556.420821,422.742578 552.783945,423.139741 C548.993241,423.554617 546.201955,426.882022 546.454606,430.686768" id="Fill-177" fill="#4264BF"></path>
                        <path d="M292.26683,560.755462 L292.42532,560.732155 C293.502119,560.571798 294.245157,559.5705 294.084802,558.494617 L286.419488,506.817761 C286.259133,505.740947 285.25785,504.997898 284.181984,505.157322 L284.023494,505.182495 C282.946696,505.340987 282.20459,506.343217 282.364012,507.418167 L290.030259,559.096888 C290.188749,560.171838 291.190964,560.914887 292.26683,560.755462" id="Fill-178" fill="#283D75"></path>
                        <path d="M195.201406,564.133211 C194.119946,563.972854 193.374112,562.966895 193.533534,561.885419 L202.849007,499.075882 C203.009362,497.994406 204.016238,497.247628 205.096766,497.407985 C206.178226,497.568342 206.924993,498.575234 206.764639,499.655778 L197.450097,562.466246 C197.289743,563.54679 196.282866,564.2945 195.201406,564.133211" id="Fill-179" fill="#283D75"></path>
                        <path d="M240.880975,590.84605 C239.722135,590.673573 238.922227,589.594894 239.093769,588.436036 L249.974563,515.076512 C250.146104,513.916721 251.224768,513.116802 252.383608,513.289279 C253.542449,513.460823 254.342356,514.53857 254.169882,515.69836 L243.29002,589.058817 C243.118479,590.217675 242.039815,591.017595 240.880975,590.84605" id="Fill-180" fill="#283D75"></path>
                        <path d="M250.833484,532.00143 L206.725762,506.535459 C202.638589,504.174857 204.292477,498.998687 210.401794,495.03172 L226.256372,484.737184 C232.365689,480.770217 240.709713,479.455664 244.796886,481.815333 L288.904608,507.281305 C292.992714,509.641906 291.337893,514.818076 285.228576,518.785043 L269.373999,529.079579 C263.263749,533.046546 254.92159,534.3611 250.833484,532.00143" id="Fill-181" fill="#3D62C4"></path>
                        <path d="M238.648133,485.497108 L207.822791,509.311031 C202.78934,512.393238 199.008892,509.333406 199.013553,504.036969 L198.426208,495.413127 C198.431802,490.11669 202.554403,483.261435 207.588786,480.178295 L238.67144,461.148041 C243.705823,458.065833 247.820033,459.878238 247.815372,465.173743 L247.81071,470.262276 C247.805116,475.559645 243.682516,482.4149 238.648133,485.497108" id="Fill-182" fill="#283D75"></path>
                        <path d="M247.815372,538.968189 L203.122169,513.062169 C198.929647,510.641899 196.61383,505.820939 196.61383,505.820939 C195.044781,502.219436 198.786074,499.612705 202.977664,502.032974 L243.979917,526.17134 C248.170575,528.59161 249.752677,531.120027 249.075832,534.121124 C249.075832,534.121124 253.127578,541.709172 247.815372,538.968189" id="Fill-183" fill="#4C73DB"></path>
                        <path d="M286.766394,519.776738 L255.683739,538.806993 C250.650289,541.890133 246.758897,540.443192 247.03672,535.592398 L247.304288,530.932726 C247.583044,526.082864 251.929395,519.592141 256.963778,516.509934 L288.0455,497.478747 C293.079883,494.396539 296.971275,495.84348 296.692519,500.693342 L296.424951,505.353014 C296.147128,510.202876 291.800777,516.693598 286.766394,519.776738" id="Fill-184" fill="#4C73DB"></path>
                        <path d="M196.638909,505.168417 L188.858923,456.499184 C187.54066,449.301772 192.921856,446.906675 200.511655,451.310894 L230.863392,468.924042 C236.332223,472.097616 241.524164,478.028022 243.843709,483.748659 L256.656215,515.350144 C260.328517,524.409373 252.401228,533.324094 244.733117,528.757654 L196.638909,505.168417 Z" id="Fill-185" fill="#4C73DB"></path>
                        <path d="M336.507032,646.55961 C335.425572,646.399253 334.679737,645.392361 334.839159,644.310885 L344.154633,581.501348 C344.314987,580.419872 345.321864,579.673094 346.402391,579.833451 C347.483851,579.99474 348.230618,581.0007 348.070264,582.082176 L338.755723,644.891712 C338.594436,645.973188 337.588492,646.719966 336.507032,646.55961" id="Fill-186" fill="#283D75"></path>
                        <path d="M382.186693,673.271423 C381.027853,673.098946 380.227946,672.020267 380.399487,670.862341 L391.279349,597.501884 C391.451823,596.342094 392.530486,595.543107 393.689327,595.714651 C394.848167,595.886196 395.647142,596.964875 395.4756,598.123733 L384.595739,671.48419 C384.424197,672.643048 383.345534,673.4439 382.186693,673.271423" id="Fill-187" fill="#283D75"></path>
                        <path d="M387.198235,620.318425 L343.090513,594.852454 C339.002408,592.491852 340.657228,587.316615 346.766545,583.348715 L362.621123,573.054179 C368.73044,569.087212 377.074464,567.772659 381.161637,570.132328 L425.26936,595.598299 C429.356533,597.958901 427.702645,603.135071 421.593328,607.102038 L405.73875,617.396574 C399.6285,621.363541 391.285409,622.678094 387.198235,620.318425" id="Fill-188" fill="#3D62C4"></path>
                        <path d="M377.097771,562.251349 L346.27243,586.065272 C341.238047,589.14748 337.45853,586.087647 337.463192,580.79121 L336.875847,572.167368 C336.881441,566.870931 341.004041,560.015676 346.038424,556.932537 L377.120146,537.902282 C382.154529,534.820074 386.269671,536.63248 386.26501,541.927984 L386.259416,547.016517 C386.254755,552.313887 382.131222,559.168209 377.097771,562.251349" id="Fill-189" fill="#283D75"></path>
                        <path d="M442.738389,624.522851 L427.886027,627.550984 L425.888122,632.705711 C425.409856,636.401377 425.435028,638.367613 427.886027,640.317067 C429.947327,641.956063 434.150105,640.691854 436.345655,639.668181 L445.884879,633.930763 C452.956322,630.033719 452.422119,627.147295 451.65857,624.765251 C450.526766,622.095123 447.257214,622.714175 442.738389,624.522851" id="Fill-190" fill="#2C4482"></path>
                        <path d="M414.552463,611.65813 L401.028618,614.407504 L399.206917,619.097009 C398.76874,622.458909 398.792047,624.247074 401.023024,626.021255 C402.898798,627.513879 406.725862,626.364344 408.725631,625.433901 L417.413671,620.218575 C423.854884,616.67674 423.36916,614.049498 422.675533,611.881884 C421.645349,609.453224 418.667605,610.014473 414.552463,611.65813" id="Fill-191" fill="#2C4482"></path>
                        <path d="M412.451634,600.282863 C409.192337,602.82713 402.204799,610.096329 399.972889,606.52466 C399.830249,608.418176 399.719306,610.311692 399.661504,612.205208 C399.424701,619.921915 411.420517,620.608093 411.65732,612.861552 C411.704867,611.334433 412.349081,601.809983 412.451634,600.282863" id="Fill-192" fill="#C2E3FF"></path>
                        <path d="M404.725627,577.386797 C406.787859,576.735114 417.813158,579.386596 418.273711,579.882583 C418.81817,580.534266 418.865717,580.572491 418.419149,579.996325 C418.693243,580.372045 419.936922,582.365318 420.266022,582.998354 C420.282803,583.030985 421.186195,585.056888 420.725642,583.907354 C421.051945,584.72219 421.323242,585.561267 421.571232,586.402208 C423.072224,591.487944 423.460058,596.850575 424.280476,602.850904 C425.182936,609.455368 426.288636,617.968265 425.829947,625.32883 C425.581957,629.292068 429.381984,632.672614 433.173621,632.672614 C437.354956,632.672614 439.132839,629.359194 439.380829,625.383836 C439.954189,616.207137 439.547709,606.758203 438.268603,597.698042 C438.006629,595.835292 437.728805,593.974407 437.452846,592.113522 C437.357752,591.475824 437.280372,590.833464 437.169429,590.199495 C436.924236,588.788914 437.469628,592.013765 437.277575,590.989159 C436.365793,586.130906 437.161039,580.500703 435.100671,575.934262 C431.762129,568.539202 432.454823,569.83138 426.557136,567.519258 C415.838561,563.316417 388.678064,586.703343 391.931768,584.39868 C391.931768,584.39868 400.071619,578.855181 404.725627,577.386797" id="Fill-193" fill="#C2E3FF"></path>
                        <path d="M373.601206,589.616896 C380.744436,584.891963 388.635365,580.703107 396.314664,576.914211 C402.360585,573.93176 400.309541,574.531233 406.807624,572.74773 C410.784787,571.655066 417.776985,585.84851 419.87278,568.617609 C419.168899,560.952179 415.339971,557.411276 409.872072,556.034259 C402.979628,558.036854 396.205586,560.737748 389.744794,563.822753 C381.757839,567.636822 373.57044,572.050364 366.18761,576.933789 C358.338634,582.12674 365.686969,594.851801 373.601206,589.616896" id="Fill-194" fill="#ACD3EF"></path>
                        <path d="M395.504688,601.675917 C401.650365,598.170442 409.443403,591.837279 415.848257,588.842708 C421.296579,586.296577 422.752821,583.514573 428.317678,582.474118 C432.318149,581.726407 434.591079,576.894259 433.578609,573.208849 C432.42443,569.01067 428.325137,567.198264 424.312547,567.947839 C421.406589,568.490442 419.051617,568.632153 416.087857,569.241882 C412.834153,569.912211 409.802336,571.355422 406.80781,572.748289 C399.983424,575.919066 392.914778,578.835323 386.374741,582.564552 C377.954269,587.366866 385.534745,600.387468 393.977592,595.573034 L395.504688,601.675917 Z" id="Fill-195" fill="#C2E3FF"></path>
                        <path d="M368.704429,502.975164 C365.873055,506.037793 365.957893,508.016149 365.612945,512.361633 C365.276387,516.612022 367.789849,520.420496 371.797778,521.760222 L411.736285,535.116455 C411.736285,535.116455 422.907022,519.587014 409.795251,513.951217 C402.974594,511.020043 398.357878,506.969168 393.247979,503.422672 C385.741154,498.214804 375.245398,495.900817 368.704429,502.975164" id="Fill-196" fill="#FF5C97"></path>
                        <path d="M364.814063,571.303959 C362.143975,570.353005 362.87769,533.335748 366.04469,508.020811 L412.785208,529.323098 C409.888573,544.658619 409.026202,557.406988 409.402848,572.632497 C409.638719,582.192375 399.561562,588.542319 390.99472,584.29193 L364.814063,571.303959 Z" id="Fill-197" fill="#FF5C97"></path>
                        <path d="M409.701648,528.386875 C414.896386,532.338925 419.132726,537.853522 424.641647,541.341284 C428.424892,543.734516 434.66473,544.773106 438.33983,541.61445 C448.635144,532.763125 424.555876,518.551966 418.983559,515.775555 C413.949176,513.264852 409.50307,520.825864 414.557964,523.34589 C419.396565,525.756836 424.062692,528.611561 428.001631,532.346384 C429.089617,533.377515 430.331432,535.794056 431.511715,536.48676 C431.696309,536.596772 433.322228,541.263902 432.502743,535.125591 C432.353576,534.014281 433.863891,535.311121 431.962013,534.747075 C429.260227,533.946223 427.790933,532.812537 425.676492,530.791295 C421.977153,527.255986 418.204162,523.918327 414.127244,520.817473 C409.63732,517.401499 405.264865,525.011923 409.701648,528.386875" id="Fill-198" fill="#FFC2B0"></path>
                        <path d="M405.13164,526.874673 L423.245165,541.761754 C429.018856,545.277485 435.303444,534.662235 430.778093,531.373987 L413.044013,515.723346 C410.142716,513.633114 406.489992,513.957556 404.597436,516.472921 C402.624704,519.094569 402.37485,524.314557 405.13164,526.874673" id="Fill-199" fill="#FF5C97"></path>
                        <path d="M389.53624,505.888624 L390.407002,490.972641 L400.149466,495.439325 L399.653486,508.970832 C399.744851,511.140311 389.703121,510.879265 389.53624,505.888624" id="Fill-200" fill="#FFC2B0"></path>
                        <path d="M402.245541,467.157786 C402.245541,467.157786 410.645502,466.9331 409.701089,481.992658 C409.043822,492.468062 402.979255,495.746054 394.108486,499.244071 C388.585581,501.422873 382.268362,497.714155 382.332691,492.480182 C381.579398,484.787715 382.047409,477.676076 384.961757,471.727024 C385.039138,465.416236 389.21115,467.949315 396.714245,468.055598 L402.245541,467.157786 Z" id="Fill-201" fill="#FFC2B0"></path>
                        <path d="M402.71812,497.558832 C402.71812,497.558832 413.266085,494.444926 413.280069,479.905595 C413.294986,464.171979 398.799692,464.533714 390.847231,463.218229 C387.325027,462.635537 384.895471,461.955885 381.043236,464.945794 C377.54061,467.66347 380.176203,474.491687 384.880555,475.242195 C386.747006,475.540533 385.540618,480.539564 385.800728,482.300693 C386.264078,485.432312 388.082049,487.072241 388.588285,490.112495 C389.066551,492.988662 392.9365,497.709866 395.62803,498.209583 C400.42095,499.099004 402.71812,497.558832 402.71812,497.558832" id="Fill-202" fill="#715154"></path>
                        <path d="M385.510692,487.773243 C385.128451,490.236398 386.249068,492.454357 388.012966,492.727523 C388.205951,492.757357 388.398004,492.763883 388.589124,492.745237 C390.141392,492.605391 391.558477,490.958004 391.898764,488.764285 C392.281005,486.302994 391.160388,484.085035 389.39649,483.810937 C387.632591,483.536839 385.892932,485.311019 385.510692,487.773243" id="Fill-203" fill="#FFC2B0"></path>
                        <path d="M403.92488,510.775033 C393.203509,508.641914 385.121459,515.074833 384.179843,499.425125 C385.87382,498.524516 387.873589,499.093223 388.775116,500.665093 C390.35815,503.425655 394.15538,505.302389 398.605215,504.97515 C399.937462,504.877257 401.165292,505.537331 401.763825,506.673813 L403.92488,510.775033 Z" id="Fill-204" fill="#FFFFFF"></path>
                        <path d="M389.120624,621.393655 L344.427422,595.487635 C340.235831,593.067365 337.919083,588.247337 337.919083,588.247337 C336.350033,584.644902 340.092258,582.038171 344.283848,584.45844 L385.28517,608.597738 C389.47676,611.018008 391.058861,613.545493 390.381084,616.54659 C390.381084,616.54659 394.433763,624.134638 389.120624,621.393655" id="Fill-205" fill="#4C73DB"></path>
                        <path d="M337.944628,587.594815 L330.164641,538.925582 C328.846379,531.728171 334.227575,529.332141 341.817374,533.73636 L372.16911,551.349508 C377.637942,554.523082 382.829883,560.453488 385.149428,566.174125 L397.961001,597.776542 C401.634236,606.835771 393.706947,615.750493 386.038836,611.184052 L337.944628,587.594815 Z" id="Fill-206" fill="#4C73DB"></path>
                        <path d="M433.572083,643.180835 L433.731505,643.157527 C434.807371,642.998103 435.550409,641.995873 435.390987,640.91999 L427.72474,589.243134 C427.565318,588.166319 426.563103,587.424203 425.488169,587.583627 L425.328747,587.607867 C424.25288,587.76636 423.509843,588.76859 423.669265,589.844472 L431.335511,641.52226 C431.494934,642.597211 432.496217,643.34026 433.572083,643.180835" id="Fill-207" fill="#283D75"></path>
                        <path d="M428.072112,602.202111 L396.989458,621.233298 C391.956007,624.315506 388.064615,622.868565 388.342439,618.018703 L388.610007,613.359031 C388.888763,608.508237 393.235113,602.018447 398.268564,598.935307 L429.351219,579.905052 C434.38467,576.821912 438.276061,578.268853 437.998238,583.119647 L437.73067,587.778386 C437.452846,592.629181 433.105563,599.119903 428.072112,602.202111" id="Fill-208" fill="#4C73DB"></path>
                        <polygon id="Fill-209" fill="#A8C4E5" points="163.761497 760.294655 272.628168 699.206158 124.783252 613.845975 25.1295022 682.660502"></polygon>
                        <polygon id="Fill-210" fill="#FFFFFF" points="156.948205 732.696031 251.2133 678.270734 111.989299 597.888139 17.7242043 652.313437"></polygon>
                        <polygon id="Fill-211" fill="#8CB2DE" points="251.21358 701.386358 251.21358 678.270734 156.948485 732.696031 17.7244839 652.313437 17.7244839 675.429061 156.948485 755.811656"></polygon>
                        <polygon id="Fill-212" fill="#DBEFFF" points="251.21358 701.386358 251.21358 678.270734 156.948485 732.696031 156.948485 755.811656"></polygon>
                        <path d="M173.996678,734.783653 L158.627825,743.919332 C157.631203,744.512279 156.389389,744.510414 155.394632,743.91467 L129.149647,728.202497 L155.659403,741.753582 C156.512452,742.188969 157.518396,742.214142 158.391955,741.820708 L173.996678,734.783653 Z" id="Fill-213" fill="#5980AB"></path>
                        <polygon id="Fill-214" fill="#2C4482" points="81.2276335 649.394756 71.2036173 643.606993 120.465056 615.165097 130.494666 620.955657"></polygon>
                        <polygon id="Fill-215" fill="#2C4482" points="48.341085 656.951478 64.4865382 647.566874 74.5096221 653.353705 58.3100959 662.706611"></polygon>
                        <polygon id="Fill-216" fill="#FF5C97" points="74.9392228 674.481464 85.1124059 668.607929 75.0026187 662.770754 64.8294356 668.644289"></polygon>
                        <polygon id="Fill-217" fill="#FF5C97" points="91.0167118 683.786356 101.189895 677.911889 91.0801077 672.074713 80.9069246 677.949181"></polygon>
                        <polygon id="Fill-218" fill="#FF5C97" points="106.774611 692.956437 116.947794 687.081969 106.838007 681.244794 96.6648235 687.118329"></polygon>
                        <polygon id="Fill-219" fill="#FF5C97" points="123.474872 702.764775 133.648987 696.891239 123.538268 691.054064 113.365084 696.927599"></polygon>
                        <polygon id="Fill-220" fill="#88BDEB" points="81.9991993 660.019795 139.758491 626.672098 144.523441 629.423337 86.7641497 662.771033"></polygon>
                        <polygon id="Fill-221" fill="#88BDEB" points="97.5677495 669.625076 155.327041 636.276448 160.091991 639.028618 102.3327 672.375382"></polygon>
                        <polygon id="Fill-222" fill="#88BDEB" points="114.05955 678.795156 171.818841 645.446528 176.583791 648.198699 118.8245 681.545463"></polygon>
                        <polygon id="Fill-223" fill="#88BDEB" points="129.61626 689.995615 187.375551 656.646987 192.140501 659.399158 134.38121 692.746854"></polygon>
                        <polygon id="Fill-224" fill="#FF5C97" points="139.568769 713.546441 149.741952 707.672906 139.632165 701.834798 129.458982 707.709266"></polygon>
                        <polygon id="Fill-225" fill="#88BDEB" points="145.710157 700.777282 203.469448 667.428654 208.234399 670.179892 150.475107 703.527588"></polygon>
                        <polyline id="Stroke-226" stroke="#FFFFFF" stroke-linecap="round" stroke-linejoin="round" points="359.682348 728.57803 289.791126 774.584594 226.582581 736.282617"></polyline>
                        <path d="M298.048167,773.093834 C298.048167,776.003565 294.155843,778.36137 289.354533,778.36137 C284.554155,778.36137 280.661831,776.003565 280.661831,773.093834 C280.661831,770.185036 284.554155,767.826299 289.354533,767.826299 C294.155843,767.826299 298.048167,770.185036 298.048167,773.093834" id="Fill-227" fill="#FFFFFF"></path>
                        <path d="M223.06998,618.49017 C223.06998,621.399901 219.177656,623.757706 214.376346,623.757706 C209.575969,623.757706 205.683645,621.399901 205.683645,618.49017 C205.683645,615.581372 209.575969,613.222635 214.376346,613.222635 C219.177656,613.222635 223.06998,615.581372 223.06998,618.49017" id="Fill-228" fill="#FFFFFF"></path>
                        <path d="M538.074969,347.437328 C538.074969,350.347059 534.182645,352.704864 529.382267,352.704864 C524.580958,352.704864 520.688634,350.347059 520.688634,347.437328 C520.688634,344.527598 524.580958,342.169793 529.382267,342.169793 C534.182645,342.169793 538.074969,344.527598 538.074969,347.437328" id="Fill-229" fill="#FFFFFF"></path>
                        <path d="M347.819291,445.274112 C347.904129,445.045697 347.839801,444.771599 347.602066,444.633617 L330.996993,435.046702 C327.565221,432.546254 323.941398,430.290071 320.828471,429.175964 L319.031942,428.138306 C318.97414,428.105675 318.909812,428.099149 318.846416,428.088893 L315.726963,426.288608 C314.232497,421.242029 305.866098,415.687343 293.240984,410.644493 C292.877389,410.37226 292.206138,410.373192 291.74745,410.646358 L289.96677,411.709188 C289.962108,411.711985 289.958379,411.711053 289.953718,411.712918 L250.785285,434.326961 C250.688326,434.382899 250.623998,434.46401 250.581112,434.553512 L250.550347,434.553512 L250.550347,434.67005 C250.533566,434.747432 250.533566,434.821084 250.550347,434.898465 L250.550347,435.638717 C250.5028,435.851283 250.569925,436.086225 250.785285,436.210222 L279.356341,452.706465 C279.413211,452.739096 279.478472,452.745622 279.541868,452.754945 L307.905023,469.131853 C308.069106,469.226016 308.270482,469.226016 308.433633,469.131853 L347.602066,446.51781 C347.788525,446.410595 347.869634,446.219472 347.858447,446.031146 L347.865905,446.032078 L347.865905,445.282503 L347.819291,445.274112 Z" id="Fill-231" fill="#A8C4E5"></path>
                        <path d="M320.8625,439.736673 C320.693754,438.497637 319.543305,437.726619 318.2931,438.015634 C318.278183,438.019364 318.263266,438.024025 318.248349,438.027754 L318.248349,438.026822 L315.916684,438.566628 C315.831846,438.574086 315.745142,438.587139 315.655642,438.608582 C315.640725,438.612311 315.625809,438.616973 315.610892,438.620702 L315.610892,438.619769 L314.751318,438.818351 L314.753182,438.818351 L289.737892,444.626625 C289.669835,444.62476 289.602709,444.631286 289.534652,444.651797 L287.040768,446.811021 L284.75665,448.567487 L288.064426,448.858367 L290.613315,449.156705 C290.718664,449.093309 290.809097,449.01313 290.887409,448.920832 L290.922837,449.029912 L314.302885,443.616936 C314.206859,443.663551 314.106171,443.705505 313.995228,443.736271 C313.981244,443.740001 313.966327,443.741865 313.950478,443.745594 L313.950478,443.746527 L315.102792,443.492939 L315.10186,443.492007 C315.116777,443.48921 315.132626,443.486413 315.14661,443.483616 C315.246365,443.460308 315.342392,443.429542 315.436553,443.394115 L316.245784,443.216044 L316.244851,443.215112 C316.259768,443.213247 316.275617,443.21045 316.289602,443.206721 C316.471399,443.161038 316.631753,443.08925 316.777191,442.998816 L318.858069,442.516814 L318.858069,442.514949 C318.872986,442.513084 318.887903,442.510287 318.902819,442.506558 C320.153024,442.216611 321.031245,440.976642 320.8625,439.736673" id="Fill-232" fill="#A8C4E5"></path>
                        <path d="M318.039609,437.207417 C318.024692,437.211147 317.80001,437.215808 317.80001,437.219537 L317.80001,437.218605 L313.510529,438.256263 C312.259391,438.54621 311.479994,439.786179 311.648739,441.026148 C311.816552,442.266116 312.981919,443.036202 314.233056,442.746254 L318.732303,441.708596 L318.732303,441.706732 C318.732303,441.703935 318.795699,441.701138 318.810616,441.697409 C320.061753,441.408394 320.857931,440.168425 320.690119,438.928456 C320.521373,437.68942 319.290746,436.91747 318.039609,437.207417" id="Fill-233" fill="#EF487C"></path>
                        <polygon id="Fill-234" fill="#2C4482" points="316.529667 442.279635 290.864568 448.221228 290.06839 445.765531 317.30347 439.416519"></polygon>
                        <path d="M290.06811,445.765718 C290.093282,444.627371 289.15726,445.22125 289.645781,443.826519 L315.185953,437.896113 C316.949852,437.968833 317.451425,438.566441 317.411337,439.389669 L290.06811,445.765718 Z" id="Fill-235" fill="#4C73DB"></path>
                        <path d="M315.788587,437.800178 C315.77367,437.803907 315.93589,437.808569 315.93589,437.812298 L315.93589,437.811366 L314.884263,438.009947 C316.037509,437.871034 316.959547,438.642052 317.123631,439.827946 C317.298902,441.096816 316.36288,442.361025 315.111742,442.65004 C315.096826,442.653769 315.003596,442.656566 315.003596,442.660296 L315.003596,442.661228 L315.93589,442.40764 L315.93589,442.406708 C315.93589,442.403911 316.186676,442.402047 316.201593,442.398317 C318.51368,441.819355 318.120252,437.215622 315.788587,437.800178" id="Fill-236" fill="#E1EAF4"></path>
                        <path d="M317.036368,439.851441 C316.861097,438.58257 316.018304,437.663316 314.767167,437.953263 C314.753182,437.956992 314.070744,438.084718 314.070744,438.088448 L314.070744,438.087515 L313.380847,438.286097 C314.996511,437.983097 316.266294,442.280101 313.942087,442.927122 C313.927171,442.931783 314.070744,442.933648 314.070744,442.936445 L314.070744,442.93831 L315.003037,442.684722 L315.003037,442.68379 C315.003037,442.680993 315.053381,442.678196 315.068297,442.674467 C316.319435,442.385451 317.211639,441.121243 317.036368,439.851441" id="Fill-237" fill="#E1EAF4"></path>
                        <path d="M289.476757,443.842834 L285.020395,447.702586 L290.55542,448.347742 C292.021917,447.479764 290.783832,443.442874 289.476757,443.842834" id="Fill-238" fill="#E1EAF4"></path>
                        <path d="M284.698754,447.758711 L286.982872,446.002244 C286.982872,446.002244 287.284003,445.832564 287.461139,446.386355 C287.639207,446.941077 287.903046,446.606379 288.024244,447.249671 C288.145442,447.892963 288.00653,448.049591 288.00653,448.049591 L284.698754,447.758711 Z" id="Fill-239" fill="#2C4482"></path>
                        <polygon id="Fill-240" fill="#DD4078" points="315.46303 428.171589 316.589241 428.171589 316.589241 427.421082 315.46303 427.421082"></polygon>
                        <polygon id="Fill-241" fill="#3A3A5E" points="276.440967 450.684943 277.566245 450.684943 277.566245 449.559649 276.440967 449.559649"></polygon>
                        <path d="M344.975517,443.129992 L316.40446,426.634681 C316.34759,426.601118 316.283262,426.594592 316.219866,426.584336 L287.855778,410.20836 C287.692627,410.114197 287.49032,410.114197 287.327168,410.20836 L248.158735,432.822404 C248.061777,432.878342 247.997448,432.959453 247.954563,433.048954 L247.923797,433.048954 L247.923797,433.165493 C247.907016,433.243806 247.907016,433.317459 247.923797,433.39484 L247.923797,434.13416 C247.87625,434.346726 247.943375,434.581667 248.158735,434.705664 L276.729792,451.200975 C276.786662,451.234538 276.851922,451.241065 276.915318,451.25132 L305.279406,467.627296 C305.442557,467.721459 305.643932,467.721459 305.807084,467.627296 L344.975517,445.013253 C345.161975,444.905105 345.243085,444.713982 345.231897,444.526588 L345.239356,444.527521 L345.239356,443.777013 L345.192741,443.769555 C345.27758,443.541139 345.214184,443.267041 344.975517,443.129992" id="Fill-242" fill="#2C4482"></path>
                        <path d="M258.098845,436.460826 L276.710214,448.469875 L288.008675,439.478704 C288.008675,439.478704 266.078342,430.543472 258.098845,436.460826" id="Fill-243" fill="#3A3A5E"></path>
                        <path d="M276.870848,448.145712 C275.260777,442.075459 264.058343,439.601116 251.24677,433.350929 C250.836561,433.114123 250.887837,432.697381 251.361442,432.424215 L286.108008,412.361897 C286.581613,412.088731 287.304141,412.058897 287.71435,412.295703 C303.627662,417.008516 313.544464,421.898467 313.33936,427.090486 L276.870848,448.145712 Z" id="Fill-244" fill="#BEDBEA"></path>
                        <path d="M276.870848,448.145712 C276.870848,448.145712 280.386525,446.836752 283.221629,449.182437 C286.056732,451.529987 304.144152,465.120229 304.144152,465.120229 L340.907269,444.098566 C340.907269,444.098566 321.261987,425.041274 313.33936,427.090486 L276.870848,448.145712 Z" id="Fill-245" fill="#DBEFFF"></path>
                        <path d="M276.870848,448.145712 C278.039011,441.067635 266.760128,437.455877 255.339537,430.184813 C254.976875,429.913512 255.055187,429.467869 255.512943,429.193771 L289.12118,409.14264 C289.578936,408.868541 290.251119,408.867609 290.613781,409.139843 C305.015846,414.892178 313.877293,421.311113 313.316985,426.879784 L276.870848,448.145712 Z" id="Fill-246" fill="#EEF8FF"></path>
                        <path d="M329.635005,439.032036 L317.496548,430.87528 C317.341788,430.771794 317.373486,430.610505 317.56647,430.516342 C317.758523,430.422179 318.040075,430.428705 318.194836,430.533123 L330.334225,438.689879 C330.488986,438.793365 330.457288,438.953722 330.264303,439.048817 C330.071319,439.14298 329.789766,439.135522 329.635005,439.032036" id="Fill-247" fill="#A8C4E5"></path>
                        <path d="M325.535806,441.551223 L313.396416,433.3954 C313.242588,433.291914 313.273353,433.130624 313.466338,433.035529 C313.659323,432.941366 313.940875,432.948824 314.095636,433.053243 L326.235025,441.209066 C326.388854,441.312552 326.358088,441.473841 326.165103,441.568937 C325.972119,441.6631 325.690566,441.654709 325.535806,441.551223" id="Fill-248" fill="#A8C4E5"></path>
                        <path d="M321.436046,444.071343 L309.297589,435.914587 C309.142829,435.811101 309.174526,435.650744 309.367511,435.555649 C309.560496,435.461486 309.842048,435.468012 309.995877,435.57243 L322.135266,443.729186 C322.290027,443.832672 322.258329,443.993029 322.065344,444.088124 C321.87236,444.182287 321.590807,444.174829 321.436046,444.071343" id="Fill-249" fill="#A8C4E5"></path>
                        <path d="M317.336753,446.591555 L305.197364,438.4348 C305.043535,438.331314 305.075233,438.170024 305.268218,438.074929 C305.46027,437.981698 305.741823,437.988225 305.896584,438.092643 L318.035973,446.248466 C318.190734,446.351952 318.159036,446.513242 317.966051,446.608337 C317.773066,446.7025 317.491514,446.695042 317.336753,446.591555" id="Fill-250" fill="#A8C4E5"></path>
                        <path d="M313.237553,449.110743 L301.098164,440.954919 C300.944336,440.850501 300.975101,440.690144 301.168086,440.595049 C301.361071,440.500886 301.642623,440.507412 301.797384,440.61183 L313.936773,448.768586 C314.090602,448.872072 314.059836,449.033361 313.866851,449.128457 C313.673867,449.221687 313.392314,449.214229 313.237553,449.110743" id="Fill-251" fill="#A8C4E5"></path>
                        <path d="M309.020791,452.625075 L296.881402,444.468319 C296.726641,444.365765 296.758339,444.204476 296.951324,444.109381 C297.144309,444.015218 297.425861,444.021744 297.580622,444.126162 L309.720011,452.282918 C309.87384,452.386404 309.842142,452.547693 309.650089,452.642789 C309.457105,452.736019 309.175552,452.728561 309.020791,452.625075" id="Fill-252" fill="#A8C4E5"></path>
                        <path d="M304.921125,455.145288 L292.782668,446.988532 C292.627908,446.885046 292.659606,446.724689 292.85259,446.629594 C293.045575,446.535431 293.326195,446.541957 293.480956,446.646375 L305.620345,454.803131 C305.775106,454.906617 305.743408,455.066974 305.550423,455.162069 C305.357439,455.256232 305.075886,455.248774 304.921125,455.145288" id="Fill-253" fill="#A8C4E5"></path>
                        <path d="M300.821832,457.664475 L288.682443,449.508651 C288.528614,449.405165 288.55938,449.243876 288.752365,449.148781 C288.94535,449.054618 289.226902,449.062076 289.381663,449.166495 L301.521052,457.322318 C301.674881,457.425804 301.644115,457.587093 301.45113,457.682189 C301.258145,457.776352 300.976593,457.767961 300.821832,457.664475" id="Fill-254" fill="#A8C4E5"></path>
                        <path d="M304.801792,419.602847 L292.48247,411.722986 C292.324912,411.621365 292.352881,411.461008 292.544001,411.361251 C292.734189,411.263359 293.015742,411.264291 293.172367,411.364048 L305.492621,419.244841 C305.649246,419.34553 305.621278,419.505887 305.43109,419.605644 C305.23997,419.704468 304.958417,419.702604 304.801792,419.602847" id="Fill-255" fill="#A8C4E5"></path>
                        <path d="M300.759928,422.214985 L288.440606,414.334192 C288.283981,414.233503 288.311017,414.073146 288.502137,413.97339 C288.693257,413.874565 288.97481,413.87643 289.131435,413.976186 L301.450757,421.856047 C301.608315,421.956736 301.580346,422.118025 301.389226,422.21685 C301.199038,422.315674 300.916553,422.314742 300.759928,422.214985" id="Fill-256" fill="#A8C4E5"></path>
                        <path d="M296.718437,424.826191 L284.399115,416.945398 C284.24249,416.844709 284.269526,416.684352 284.460646,416.584596 C284.651767,416.486703 284.933319,416.487636 285.089944,416.587392 L297.409266,424.468185 C297.566824,424.568874 297.538855,424.729231 297.347735,424.828988 C297.157547,424.92688 296.875062,424.925948 296.718437,424.826191" id="Fill-257" fill="#A8C4E5"></path>
                        <path d="M292.677039,427.438236 L280.357717,419.557444 C280.201092,419.456754 280.228129,419.295465 280.419249,419.196641 C280.609437,419.097816 280.890989,419.099681 281.048547,419.199438 L293.367869,427.079298 C293.524494,427.179987 293.497457,427.341276 293.306337,427.440101 C293.115217,427.538925 292.833665,427.537993 292.677039,427.438236" id="Fill-258" fill="#A8C4E5"></path>
                        <path d="M288.635548,430.049442 L276.316226,422.16865 C276.158669,422.06796 276.186638,421.907604 276.377758,421.807847 C276.567946,421.709954 276.849498,421.710887 277.007056,421.810644 L289.326378,429.691436 C289.483003,429.792126 289.455034,429.952482 289.264846,430.052239 C289.073726,430.150131 288.792174,430.149199 288.635548,430.049442" id="Fill-259" fill="#A8C4E5"></path>
                        <path d="M284.498964,433.658497 L272.179642,425.777704 C272.023016,425.677015 272.050053,425.515726 272.241173,425.416901 C272.432293,425.318076 272.713846,425.319941 272.870471,425.419698 L285.189793,433.299558 C285.34735,433.400248 285.319382,433.561537 285.128262,433.660361 C284.938074,433.759186 284.655589,433.758254 284.498964,433.658497" id="Fill-260" fill="#A8C4E5"></path>
                        <path d="M280.457473,436.269703 L268.138151,428.38891 C267.981526,428.288221 268.008562,428.127864 268.199682,428.028107 C268.38987,427.930215 268.671422,427.931147 268.82898,428.030904 L281.148302,435.911697 C281.304927,436.012386 281.277891,436.172743 281.086771,436.2725 C280.896583,436.370392 280.614098,436.36946 280.457473,436.269703" id="Fill-261" fill="#A8C4E5"></path>
                        <path d="M276.416075,438.881748 L264.096753,431.000955 C263.939196,430.900266 263.967164,430.738977 264.158284,430.640152 C264.348472,430.541328 264.630025,430.54226 264.787582,430.642949 L277.106904,438.52281 C277.26353,438.623499 277.236493,438.784788 277.045373,438.883612 C276.854253,438.982437 276.5727,438.981505 276.416075,438.881748" id="Fill-262" fill="#A8C4E5"></path>
                        <path d="M331.76688,437.234734 C326.94506,440.188283 314.090602,446.995058 307.282065,450.52757 C306.959491,450.695385 307.053653,451.179253 307.416315,451.216545 L311.934208,451.678969 C312.193385,451.705074 312.342552,451.986631 312.220422,452.215978 L310.666289,455.1341 C310.501273,455.443626 310.823846,455.790444 311.140826,455.641275 C313.947961,454.315534 322.106458,448.132473 333.707915,440.249815 C334.659786,439.603726 334.767932,438.238829 333.927003,437.453826 C333.336862,436.903765 332.454913,436.813331 331.76688,437.234734" id="Fill-263" fill="#FF5C97"></path>
                        <path d="M273.010035,412.598703 L273.002577,412.598703 C273.001645,412.370287 272.870191,412.151195 272.586774,411.988041 L262.119919,405.943894 C261.493418,405.583091 260.397973,405.627842 259.674514,406.046448 L240.726587,416.98614 C240.348076,417.203368 240.151362,417.479331 240.132716,417.745971 L240.127123,417.742241 L240.158821,418.791087 C240.158821,418.791087 240.164414,418.794816 240.164414,418.794816 C240.070253,419.089425 240.190519,419.386831 240.550384,419.594736 L251.017239,425.637019 C251.64374,425.999686 252.739185,425.954003 253.462644,425.53633 L272.410571,414.596637 C272.795608,414.373816 272.992322,414.092259 273.003509,413.82189 L273.007238,413.820957 L273.010035,412.598703 Z" id="Fill-264" fill="#A8C4E5"></path>
                        <path d="M238.293955,417.936721 L238.262257,416.887875 L239.615946,417.762379 C239.615946,417.762379 239.235571,418.714265 239.193618,418.681634 C239.152597,418.648071 238.293955,417.936721 238.293955,417.936721" id="Fill-265" fill="#DBEFFF"></path>
                        <path d="M249.152373,424.783398 L238.685518,418.741115 C238.059017,418.378448 238.137329,417.746344 238.861721,417.32867 L257.809648,406.388977 C258.534039,405.970371 259.628552,405.924688 260.255985,406.287356 L270.721908,412.330571 C271.349341,412.691374 271.271029,413.324411 270.546637,413.742084 L251.59871,424.682709 C250.874319,425.100383 249.778874,425.146066 249.152373,424.783398" id="Fill-266" fill="#DBEFFF"></path>
                        <path d="M250.291356,418.975591 L257.809368,406.388511 C258.53376,405.970837 259.629204,405.925154 260.255705,406.287822 L270.722561,412.330105 C271.349062,412.69184 271.270749,413.323944 270.546357,413.74255 L251.598431,424.682243 C251.236701,424.89108 250.781742,425.007618 250.338903,425.025332 L250.291356,418.975591 Z" id="Fill-267" fill="#8DB0DA"></path>
                        <polygon id="Fill-268" fill="#8DB0DA" points="258.537209 414.801092 260.458665 412.193429 271.145542 411.744989 271.142745 412.966311 259.463909 416.688082"></polygon>
                        <path d="M239.752061,418.656928 C239.752061,418.838728 239.623405,418.911448 239.464915,418.821014 C239.306425,418.728716 239.178701,418.507759 239.178701,418.325959 C239.178701,418.143227 239.306425,418.070507 239.464915,418.161873 C239.623405,418.253239 239.752061,418.475128 239.752061,418.656928" id="Fill-269" fill="#1E1B5E"></path>
                        <path d="M249.152373,423.587062 L238.685518,417.544779 C238.059017,417.182111 238.137329,416.550007 238.861721,416.132333 L257.809648,405.192641 C258.534039,404.774035 259.628552,404.728352 260.255985,405.091019 L270.721908,411.134234 C271.349341,411.495037 271.271029,412.128074 270.546637,412.545748 L251.59871,423.486373 C250.874319,423.904046 249.778874,423.949729 249.152373,423.587062" id="Fill-270" fill="#1E1B5E"></path>
                        <path d="M265.839862,409.357537 L262.949753,407.688707 C262.830419,407.620648 262.846268,407.498516 262.983315,407.41927 C263.121295,407.340024 263.331061,407.330701 263.450394,407.399691 L266.340503,409.068521 C266.459837,409.137512 266.443988,409.258712 266.306941,409.337958 C266.168961,409.417204 265.959195,409.426527 265.839862,409.357537" id="Fill-271" fill="#565682"></path>
                        <path d="M244.853756,421.921775 L242.532346,420.582049 C242.434455,420.524246 242.353346,420.370415 242.353346,420.23896 C242.353346,420.108437 242.434455,420.047837 242.532346,420.104708 L244.853756,421.444433 C244.951647,421.501304 245.032756,421.655135 245.032756,421.785658 C245.032756,421.917113 244.951647,421.978645 244.853756,421.921775" id="Fill-272" fill="#1E1B5E"></path>
                        <path d="M267.850632,414.758299 L268.993623,414.098225 C269.06168,414.059069 269.116686,413.953718 269.116686,413.863284 C269.116686,413.771918 269.06168,413.729964 268.993623,413.769121 L267.850632,414.429195 C267.782574,414.468351 267.727569,414.574634 267.727569,414.665068 C267.727569,414.755502 267.782574,414.797456 267.850632,414.758299" id="Fill-273" fill="#565682"></path>
                        <path d="M266.22956,415.776192 L267.372552,415.116118 C267.440609,415.076962 267.495614,414.971611 267.495614,414.881177 C267.495614,414.789811 267.440609,414.747857 267.372552,414.787014 L266.22956,415.447088 C266.161503,415.486244 266.106497,415.59346 266.106497,415.682961 C266.106497,415.773395 266.161503,415.815349 266.22956,415.776192" id="Fill-274" fill="#565682"></path>
                    </g>
                    <g id="Group-278" transform="translate(242.000000, 405.000000)">
                        <mask id="mask-2" fill="white">
                            <use xlink:href="#path-1"></use>
                        </mask>
                        <g id="Clip-277"></g>
                        <path d="M16.4565,0.742222222 L1.0755,9.51377778 C0.7164,9.71733333 0.7164,10.2275556 1.0755,10.4328889 L10.4139,15.7564444 C10.5804,15.8524444 10.7847,15.8524444 10.9512,15.7564444 L26.3331,6.98577778 C26.6913,6.78222222 26.6913,6.272 26.3331,6.06666667 L16.9938,0.742222222 C16.911,0.694222222 16.8183,0.671111111 16.7256,0.671111111 C16.632,0.671111111 16.5393,0.694222222 16.4565,0.742222222" id="Fill-276" mask="url(#mask-2)"></path>
                    </g>
                </g>
            </g>
        </g>
    </g>
</svg>